<?xml version="1.0" encoding="utf-8"?>
<!-- Generator: Adobe Illustrator 19.0.0, SVG Export Plug-In . SVG Version: 6.00 Build 0)  -->
<svg version="1.1" id="Layer_1" xmlns="http://www.w3.org/2000/svg" xmlns:xlink="http://www.w3.org/1999/xlink" x="0px" y="0px"
	 viewBox="1881.5 83.5 625 625" style="enable-background:new 1881.5 83.5 625 625;" xml:space="preserve">
<style type="text/css">
	.st0{fill:#B2B2B2;}
</style>
<title>bi</title>
<g id="Layer_2">
	<g id="Layer_1-2">
		<path class="st0" d="M2072.6,346.1L2194,224.8l121.4,121.4l70.6-70.6L2194,83.5l-192,192L2072.6,346.1 M1881.5,396l70.6-70.6
			l70.6,70.6l-70.6,70.6L1881.5,396z M2072.6,445.9L2194,567.3l121.4-121.4l70.7,70.6l0,0L2194,708.5l-192-192l-0.1-0.1
			L2072.6,445.9 M2365.3,396l70.6-70.6l70.6,70.6l-70.6,70.6L2365.3,396z"/>
		<path class="st0" d="M2265.6,396L2265.6,396l-71.6-71.7l-53,53l0,0l-6.1,6.1l-12.6,12.6l-0.1,0.1l0.1,0.1l71.6,71.6L2265.6,396
			L2265.6,396L2265.6,396"/>
	</g>
</g>
</svg>
