<?xml version="1.0" encoding="utf-8"?>
<!-- Generator: Adobe Illustrator 19.0.0, SVG Export Plug-In . SVG Version: 6.00 Build 0)  -->
<svg version="1.1" id="Layer_1" xmlns="http://www.w3.org/2000/svg" xmlns:xlink="http://www.w3.org/1999/xlink" x="0px" y="0px"
	 viewBox="1335.5 162.1 468 468.8" style="enable-background:new 1335.5 162.1 468 468.8;" xml:space="preserve">
<style type="text/css">
	.st0{fill:#988430;}
	.st1{fill:#7A6A2A;}
	.st2{fill:#BA9F33;}
	.st3{fill:#CFB66C;}
	.st4{fill:#E2CC85;}
	.st5{fill:#F1D789;}
	.st6{fill:#F4ECB4;}
	.st7{fill:#F3E19D;}
	.st8{fill:#F2E8B0;}
	.st9{fill:#F5EEC0;}
	.st10{fill:#E6DB9D;}
	.st11{fill:#E5CB7A;}
	.st12{fill:#D8C173;}
	.st13{fill:#E0CD81;}
	.st14{fill:#DFC57C;}
	.st15{fill:#E5CC7C;}
	.st16{fill:#D2C281;}
	.st17{fill:#E2C270;}
	.st18{fill:#CCB360;}
	.st19{fill:#D5B457;}
	.st20{fill:#D2B257;}
	.st21{fill:#D2B159;}
	.st22{fill:#C2A44D;}
	.st23{fill:#CAA13E;}
	.st24{fill:#B59544;}
	.st25{fill:#C89D3A;}
	.st26{fill:#CEB052;}
	.st27{fill:#CCA847;}
	.st28{fill:#C39D3C;}
	.st29{fill:#D2BA6B;}
	.st30{fill:#C0993A;}
	.st31{fill:#A88F33;}
	.st32{fill:#E3C571;}
	.st33{fill:#D8B65B;}
	.st34{fill:#D3AE4D;}
	.st35{fill:#F4EFC8;}
	.st36{fill:#EBCC73;}
	.st37{fill:#E5C66B;}
	.st38{fill:#E6BD62;}
	.st39{fill:#B6933F;}
	.st40{fill:#C49937;}
	.st41{fill:#DFC068;}
	.st42{fill:#C99E3D;}
	.st43{fill:#B58634;}
	.st44{fill:#E6C367;}
	.st45{fill:#DCBA5A;}
	.st46{fill:#E9CE77;}
	.st47{fill:#CDAE50;}
	.st48{fill:#D2A83E;}
	.st49{fill:#C29637;}
	.st50{fill:#AC8132;}
	.st51{fill:#A67A2E;}
	.st52{fill:#8C6228;}
	.st53{fill:#CBA94C;}
	.st54{fill:#BE9C44;}
	.st55{fill:#A17C34;}
	.st56{fill:#92723A;}
	.st57{fill:#B18E3E;}
	.st58{fill:#543E26;}
	.st59{fill:#806031;}
	.st60{fill:#B6903C;}
	.st61{fill:#685026;}
	.st62{fill:#D4B968;}
	.st63{fill:#CCA849;}
	.st64{fill:#585136;}
	.st65{fill:#252211;}
	.st66{fill:#C3B378;}
	.st67{fill:#E6D89C;}
	.st68{fill:#6F674D;}
	.st69{fill:#AC924C;}
	.st70{fill:#9F8E57;}
	.st71{fill:#EAC970;}
	.st72{fill:#D7BC6B;}
	.st73{fill:#453A25;}
	.st74{fill:#84754B;}
	.st75{fill:#F7F7E7;}
	.st76{fill:#F8F6DE;}
	.st77{fill:#D4C38B;}
	.st78{fill:#E2D59D;}
	.st79{fill:#CBAC5A;}
	.st80{fill:#D6BC6F;}
	.st81{fill:#DFC677;}
	.st82{fill:#C4A859;}
	.st83{fill:#927D49;}
	.st84{fill:#6E6342;}
	.st85{fill:#39331F;}
	.st86{fill:#292311;}
	.st87{fill:#3F3824;}
	.st88{fill:#2D2815;}
	.st89{fill:#82764F;}
	.st90{fill:#2D2816;}
	.st91{fill:#574F35;}
	.st92{fill:none;}
	.st93{fill:#DEC270;}
	.st94{fill:#CBAF59;}
	.st95{fill:#E3C677;}
	.st96{fill:#ECD592;}
	.st97{fill:#FFFFFF;fill-opacity:0.8;stroke:#000000;stroke-width:3;stroke-miterlimit:10;}
	.st98{opacity:0.65;fill:#B2B2B2;}
</style>
<title>Dogecoin (DOGE)</title>
<g id="Layer_2">
	<g id="Layer_1-2">
		<g id="Layer_1-3">
			<ellipse class="st0" cx="1569.5" cy="396.5" rx="234" ry="234.4"/>
			<ellipse class="st1" cx="1569.5" cy="396.5" rx="226.5" ry="226.9"/>
			<ellipse class="st2" cx="1569.5" cy="396.5" rx="221.7" ry="222.1"/>
			<path class="st3" d="M1437.8,371.5c-1.3-1.2-2.7-2.4-4-3.6c-1.3-1.2-2.6-2.4-3.9-3.6l-3.9-3.8c-0.6-0.6-1.3-1.2-2-1.9
				c-0.6-0.6-1.4-1.2-2-1.8c-5.2-5-10.5-9.9-15.6-14.9c5.3,4.9,10.6,9.8,15.9,14.7l1.9,1.9c0.6,0.6,1.3,1.2,2,1.9l3.9,3.6
				c1.3,1.2,2.6,2.4,3.9,3.8C1435.2,369,1436.5,370.3,1437.8,371.5L1437.8,371.5z M1368.4,370.7c0,0,19,2,28.3,3.3
				c8.6,1.2,35.5,5.3,35.5,5.3L1368.4,370.7z M1368.4,370.7c5.3,0.5,10.7,1,16,1.6c2.7,0.3,5.3,0.6,8,0.8l4,0.5
				c1.3,0.2,2.6,0.4,3.9,0.6l15.9,2.5l7.9,1.3c2.6,0.5,5.2,0.9,8,1.4c-2.6-0.3-5.3-0.6-8-1l-7.9-1.1l-15.9-2.4
				c-1.3-0.2-2.6-0.5-3.9-0.6l-4-0.5c-2.6-0.3-5.3-0.6-8-1C1379.1,372.2,1373.8,371.5,1368.4,370.7L1368.4,370.7z M1430.3,384.3
				c0,0-20.3,5.2-27.1,7.1c-6.7,1.9-27.1,8.1-27.1,8.1L1430.3,384.3L1430.3,384.3z"/>
			<path class="st3" d="M1430.3,384.3c-4.5,1.3-9,2.6-13.6,3.8l-13.6,3.6c-4.5,1.3-9,2.6-13.5,3.9l-6.7,1.9
				c-2.2,0.6-4.5,1.2-6.8,1.9c2.2-0.8,4.5-1.5,6.7-2.2l6.7-2.2c4.5-1.4,9-2.7,13.5-4.1c4.6-1.1,9.1-2.4,13.7-3.5
				C1421.1,386.5,1425.7,385.4,1430.3,384.3L1430.3,384.3L1430.3,384.3z M1378.9,412c2.2-0.8,28-12.9,34-15.7
				c3-1.4,11.7-4.5,11.7-4.5L1378.9,412z"/>
			<path class="st3" d="M1378.9,412c2-0.8,3.8-1.7,5.7-2.5l5.6-2.6l11.2-5.4c3.7-1.8,7.4-3.8,11.2-5.4c2-0.8,3.9-1.5,5.9-2.2l3-0.9
				c1-0.3,2-0.6,3-0.8c-3.7,1.8-7.7,3.3-11.4,5c-3.7,1.9-7.6,3.4-11.4,5l-11.4,5C1386.4,408.8,1382.7,410.5,1378.9,412L1378.9,412
				L1378.9,412z M1381.4,422.5c0,0,23.3-13.7,31.3-18.1c4.2-2.4,17.8-9.1,17.8-9.1L1381.4,422.5z"/>
			<path class="st3" d="M1381.4,422.6c3.9-2.4,7.9-4.9,12-7.4l6-3.6c2-1.2,4-2.4,6.1-3.6c2-1.2,4-2.4,6.1-3.6c1-0.6,2-1.1,3.1-1.6
				l3.2-1.6c4.2-2,8.4-4.1,12.8-5.9c-4,2.5-8.1,4.7-12.3,6.9c-2,1.1-4.1,2.2-6.2,3.3s-4,2.4-6.1,3.5c-2,1.2-4,2.4-6.1,3.5l-6.2,3.4
				L1381.4,422.6L1381.4,422.6L1381.4,422.6z M1430.3,398.4c0,0-14.5,11.2-19.2,14.7c-4.7,3.6-18.5,13.6-18.5,13.6L1430.3,398.4z"/>
			<polygon class="st4" points="1513.5,488.3 1506.1,474.2 1510.4,456.6 1541.2,444.7 1528.1,417.8 1534.6,390.6 1546.7,366.2 
				1584.3,360.3 1611.9,334 1671.5,338.5 1683.2,402.3 1660.7,482.7 1647.8,524.3 1595.8,526.2 1571.7,509.5 1543.4,497.6 			"/>
			<path class="st5" d="M1604.8,487.8c0,0-7.2,3.3-19.5,2.5c-3.6-4.8-28.4-7-28.4-7s-3.1-0.9-8.6,1.3c-5.5,2.3-10.8,2-15.6,3.2
				s-9.7-5.2-13.5-6.5c-3.7-1.4-8.7-4.8-8.7-4.8l-10.5-1l-21.1-8.9l-33.4-33.4l-9.1,14.3l-2.8,17.6l10.1,20.9l27.2,24.8l53.1,13.5
				l31.5-9.3l39.4-16.7L1604.8,487.8L1604.8,487.8z"/>
			<polygon class="st6" points="1416.2,369.9 1422.9,349.4 1431,336.2 1456.8,334.1 1449.1,356.8 1427.4,395.3 1436.4,429.7 
				1420.5,437.6 1415.6,430.1 1411.7,412.9 1411.4,393.6 			"/>
			<path class="st7" d="M1445.2,486.4l-5-6.9c0,0-1.3-3.3-0.6-6.2c0.7-2.9,0.6-3.1,0.3-4.2c-0.4-1.1-3.6-4.9-3.4-8.2
				c0.2-3.3-0.3-4.4,2.2-7c2.5-2.5,1.8-6.9,1.8-6.9l3.3,2l0.7-1.1c0,0,1.2,0.9,1.2,2.4c0.3-2-0.8-11.5,1.7-13.7s6.9,10.1,6.9,10.1
				l-2.7-17.8l-7-18.3l-12.5-16.7l-0.7-18.4V374c0,0-5.7,8.8-7.3,15.8c-1.1,4.8,1.6,10.6,1,17.4c-0.5,6.8-1,6.3,0.6,9
				c1.7,2.7,5.7,8.3,4.1,12.3c-1.4,3.5-6.2,1-6.2,1s-0.9,2.8-2.2,3.8c-0.5-1.7-0.9-2.7-1.9-3.8c-0.1,0.6-0.3,1.5-0.3,1.5
				s-0.8-2.6-1.7-5.9c-1.1-4.4-2.3-10.2-3.4-13.3c-0.5,1.8-1.6,7.2-1.6,7.2l0.6,8.3l3.1,11.5l3,7.5l2.9,9.2l2.5,6.2l2,4.7l1.8,10.6
				l8.6,9.1l4.6,2L1445.2,486.4L1445.2,486.4L1445.2,486.4z"/>
			<path class="st8" d="M1420.7,353.2c0,0-6.2,10.5-7.9,21.1c-1.8,10.6-3.4,21.8-2.2,36.2c1.1,14.5,3.3,23.4,5,29.8
				c3,10.6,10.8,25.3,10.8,25.3l0.3-0.6c-1.3-2.5-2.3-5.1-3.1-7.8c-1-4-1.4-8.8-2.3-11c-0.8-2.2-2.2-4-2.9-6.7
				c-0.6-2.5-0.7-6.6-2.7-9.6c-0.8-1.2-1.9-4.4-2.2-7.6c-0.4-4.8,0.2-10.1-0.3-14.5c-0.8-7.3-1.4-12.3-0.6-16.1
				c0.8-3.8,4.7-14.7,7.1-23.4c1.6-5.5,0.6-10.2,3.6-15c2.9-4.8,4.7-9,5.3-11.9C1429.2,338.9,1420.7,353.2,1420.7,353.2
				L1420.7,353.2L1420.7,353.2z"/>
			<path class="st9" d="M1450,349c0,0-3.2,1-4.7,2.6c-1.5,1.6-2.2,2.9-4.2,5.6c-2,2.7-2.2,4.9-3.8,8.3c-1.7,3.3-5.3,8.3-5.8,10.1
				c-0.5,1.8-1.2,10.1-2.2,14.1c-0.8,3.9,0.9,8.8,0.9,8.8l2.2-0.5c0,0,0,2.8,2.2,4.7c2.2,1.9,2.5-6.3,2.5-6.3l8.1-27.3l12.2-8.3
				l1.3-6.7L1450,349L1450,349L1450,349z"/>
			<path class="st10" d="M1455.9,361.3c0,0-5.7,0.4-8.5,2.4c-1.1,0.8-1.6,1.5-2.8,2.5c-2.2,1.9-4.5,3.6-5.6,6
				c-1.2,2.4-2.5,6.1-3.4,13c-0.4,2.9-0.4,5.6-0.6,8c-0.4,3.2-0.9,5.7-0.6,7.5c0.4,3.6,4.1,5.5,4.5,9.7l7.8-3.9l7.3-28.9l15.5-9.8
				l-8.8-9.9L1455.9,361.3L1455.9,361.3L1455.9,361.3z"/>
			<path class="st11" d="M1414.9,555.7c0-0.3,0.1-0.6,0.1-0.9c1.1-9.8,1.3-17.1,2.2-21.8c1.2-6.6,2-9,1.9-11.5
				c-0.3-3.9-0.6-6.8-0.2-9.9c0.6-4,4.5-8.8,4.4-12.1c-0.1-2.6-1.4-4.3-2.5-5.9c-1.1-1.6-2-2.9-2-2.9s7.8-5.3,7.7-26.9
				c0.2,0,0.3,0.1,0.5,0.2l3.8,10.9l2.6,3.2l10,18.7l12.9,12.6l19.1,12.9l12,13l1.2,34.8l-15.6,20.3l-2.6,4.6
				C1449.9,584.9,1431.2,571.6,1414.9,555.7L1414.9,555.7z"/>
			<path class="st12" d="M1462.7,589c0,0,0.3-4.3,3.8-7.1c0.6,0.9,0.9,1.9,0.8,2.5c0.6-1.1,5.1-8.4,15.3-10.3
				c10.2-1.9,12.6-9.3,12.6-9.3l21.6-19.7l24.7-22.8l30.1-10.6l14.1-3.5c0,0,0.3,1-0.3,3.3c2.6-0.2,8.4-1.5,14.4-3.6
				c2.4-0.9,4.7-1.3,5.9-0.1c1.8,1.7,2,5.6,2.2,8c2.9-0.6,6.3-3.5,9-3.2c4.3,0.5,8.1,5.5,12.5,5.5c5.8,0,8.4-3.6,12.5-6.4
				c2.4-1.7,5.9-3.8,7.9-5.2c4.7-3.5,54.4-18.7,54.4-18.7l17.4,1.1l2.8,18.7l-1.5,49c-0.2,0.2-0.4,0.4-0.6,0.5l-79.2,41.4
				l-109.8,16.9c-24.6-4-48.3-12.2-70.2-24.2L1462.7,589L1462.7,589L1462.7,589z"/>
			<path class="st5" d="M1421.6,561.9c1.6-3.3,3-6,3.2-7c0.2,2,0.6,6.3,1.3,10.9C1424.5,564.6,1423.1,563.2,1421.6,561.9
				L1421.6,561.9z"/>
			<path class="st13" d="M1501.8,608l14.2-4l1.2,0.4c0,0,0.6,0.4,0.6,1.7c1.8-1,3.3-0.8,4.4-1.5c0.6,1.2,1.1,5.2,3.6,5.7
				c2.6,0.6,5.4-1.1,8.3-3.3c2.8-2.2,6-5,8.4-6.2c0.9,1.6,1.7,3.3,2.3,5c3.2-2.5,8.7-12.9,16.6-12.7c2.3-5.4,6.1-10,10.9-13.2
				c7.3-5,11.9-5.3,17.6-4.9c2.3-3,5.1-5.5,8.3-7.4c0.9,0.4,3.6,2,6.8,0.5c3.3-1.5,7-7.4,11.9-8.2c2.6-0.4,5.3,0.2,7.6,1.6
				c0,0,14.2-14.1,24-18.8c-0.4-1.1-1.1-5.4,10.4-14.9c0.6,0.6,0.2,2.2,0.6,2.3c0.2,0,3-1.2,6.5-3.9c4.4-3.3,9.7-6.8,12.8-7.7
				c6-1.8,12.3,1.9,12.3,1.9c0.5-0.4,1.1-0.7,1.8-0.8c1.5-0.3,2.6-0.5,3.4-0.8c-0.1,2,1,5.3,0,8.3c1.2,0.7,2.4,1.2,3.7,1.6
				c-0.6,1.4-2,5-4.4,6.7c2,0.9,2.2,2,5,3c-1.1,1.6-3,4.3-3.8,6c-0.8,1.8-3.8,9.2-5.2,12c-1.4,2.8-3.3,8-4.2,9
				c-0.9,1-4.2,5.4-6.7,7.6c2.2-0.8,11.4-3.6,15.3-4.7c-1.2,1.7-7,10.4-12.7,18.9C1628.8,619.9,1562.6,627.5,1501.8,608L1501.8,608z
				"/>
			<path class="st14" d="M1456.8,360.3c0,0-3.3,0-3.9,0.5c-0.6,0.5,3.3,1.4,4.5,1.9c1.2,0.5,3.8,2.5,4.5,4.2
				c0.6,1.6,23.7,10.9,23.7,10.9l16.3-0.8l5.6-7.8l-10.7-9.4l7.5-22.1l-9.9,1.6l-23.9,14.3l-12,4.6L1456.8,360.3L1456.8,360.3z"/>
			<path class="st15" d="M1492.6,367.6c0.5,0.8,1.3,1.2,2.2,1.2c3.4,0,6.5,0.8,7.8,2.5c2.2,2.7,8.1,11.5,8.1,11.5l14.3,5.2l0.9-16.9
				l-15.6-10.9l-17.8,6.6L1492.6,367.6L1492.6,367.6L1492.6,367.6z"/>
			<path class="st16" d="M1489.8,373.9c0,0,2.6,0.2,5.9-1c3.3-1.2,8.7-3.8,11.1-2.8c3.3,1.4,2.6,5.8,6.2,9.8c2.2,2.4,6.1,2.4,8.3,5
				c2.2,2.6,9.9,1.4,9.9,1.4l2.9,15.8l-11.7,15l-3.8,18.7h-15.8l-14.5-5.7l-7.1-17.3l3.6-17.4L1489.8,373.9L1489.8,373.9z"/>
			<path class="st17" d="M1520.4,374.7c0.4,0.1,0.8,0.2,1.2,0.2c-0.5,0.4-1.4,1.2-1,3.4c0.4,2.2,1.6,4.9,0.6,6.6
				c0.8,0.9,1.4,2,1.8,3.1c0.6,1.9,0.8,3.6,5,3.8c-0.6,0.4-1.2,0.8-1.7,1.3c0,0,2.9,2.5,4.4,4.9c1.5-0.1,5.5-1.3,5.5-1.3l0.8,0.6
				l1.8-0.8c0,0-1.7-0.6-0.5-4.7c1.1-3.6,2.2-3.4,2.2-3.6c0.1-0.3,0.8-4,0.8-5.5c0.6-2,1-8,1-8l-1.2-13.2l-6.8-4.1l-5.5-5.4
				l-5.2,9.9l-3.4,3.4l-0.3,8.5L1520.4,374.7L1520.4,374.7z"/>
			<path class="st18" d="M1536.7,363.6c0,0,1.2,3.4,1.7,6.1c0.2-0.5,0.3-1.1,0.3-1.6c0,0,0.9,5.2,1.1,7.4c0.4-0.1,0.7-0.2,0.8,0.2
				s0.9,4.6,0.7,6.9c1.6-2.6,3.8-4.8,6.4-6.4c1.5-0.9,3.3-2,5.2-2c2.9-0.1,5,1.9,8.5,1.9c8.4,0,16-6.2,21.6-8.1
				c4.1-1.4,7.7-2.4,10.2-4.7c1.2-1,3.4-3.3,5.3-6.7c2.6-4.5,5.3-8.4,8.1-8.9c-1.2,0.2-2.5,0.3-3.7,0.3c0,0,0.8-0.8,2.2-2
				c1.4-1.1,3.1-2.5,5.5-2.5c4.3,0,6.5,0.6,8.9,0.6c2.4-0.1,3.8-0.6,3.8-0.6s2.5,1.8,8.3,1.8c5.7,0.1,9.5,0.6,12.5,0.8
				c3,0.3,13-0.8,15.9-0.8c1.9,0.1,3.7,0.5,5.4,1.3l-9.3-27l-33.3-29.2l-19.8,14.1l-30.5,30.6l-29.5,11l-6.2,6.9L1536.7,363.6
				L1536.7,363.6z"/>
			<path class="st19" d="M1603,348.1c0,0,0.8-0.8,2.2-2c1.4-1.1,3.1-2.5,5.5-2.5c4.3,0,6.5,0.6,8.9,0.6c2.4-0.1,3.8-0.6,3.8-0.6
				s2.5,1.8,8.3,1.8c5.7,0.1,9.5,0.6,12.5,0.8c3,0.3,13-0.8,15.9-0.8c1.9,0.1,3.7,0.5,5.4,1.3l-4.2-12.2l-4.9-9.3l-13.9-15.3
				c0,0-16.7-9.9-16.9-9.9c-0.1-0.1-5.8-1.6-5.8-1.6l-15.1,9.2l-13.7,35.6l-0.3,7.5l8.9,4.2c2.2-3.8,4.7-6.8,7-7.1
				C1604.6,348.1,1603,348.1,1603,348.1L1603,348.1L1603,348.1z"/>
			<path class="st20" d="M1602.8,350.6c-1.3,0.1-2.4-0.2-2.7-1.1c-1.1-3.2-2-3.6-3-3.6c-1,0-2.2,2-3,2.2c-0.8,0.2-1.7-2.3-1.7-2.3
				l-0.8-0.4c0,0-4.9,3.2-8.3,6.9c-3.4,3.8-9.1,10.1-11.6,11.3c-2.5,1.1-11.2,1.5-14.2,2.2s-6.3,2.8-6.7,3.3c-0.5,0.5,1.3,1,1.6,1.5
				c0.3,0.5-2.9,0.3-3.2,0.8c-0.2,0.4,0.7,2.5,1.2,3.6c0.8-0.4,1.7-0.6,2.6-0.6c2.9-0.1,5,1.9,8.5,1.9c8.4,0,16-6.2,21.6-8.1
				c4.1-1.4,7.7-2.4,10.2-4.7c1.2-1,3.4-3.3,5.3-6.7C1600,354.4,1601.4,352.2,1602.8,350.6L1602.8,350.6L1602.8,350.6z"/>
			<path class="st21" d="M1482.3,538.3c0,0-0.7-2.8-7.7-10c-2-2-3.2-3.8-4.5-5c-3.3-3.1-5.2-3.9-7.6-5.7c-5.1-3.8-10.8-3.8-15.1-8.5
				c-4.3-4.7-9.3-13.7-12.8-22.9c-3.4-9.2-4.4-12.1-4.4-12.4s0.9-2,2.2-1.8s1.2,2.6,1.5,3.2c0.6,0.9,1.3,1.8,2,2.6
				c1.8,2,4.3,4.5,5.6,8.2c-0.3-3.1-1.3-6.6-1.3-6.6s6.7,4.2,12.3,8.6c5.7,4.4,8.1,5.9,9.7,8.7s5.6,10.2,7.5,12.4
				c1.9,2.2,27.7,10.3,27.7,10.3l12.3,9.2l6.1,13.4l-4.8,7.5l-9.2,2l-14.9-6.7L1482.3,538.3L1482.3,538.3L1482.3,538.3z"/>
			<path class="st22" d="M1449.2,492.2c0,0,3.1,5,10.7,9.7c6.8,4.1,17.6,7.9,27.2,10.1c5.5,1.3,11.1,2.3,16,2.4
				c13.4,0.2,22.6-3.6,34-4.9c6.2-0.6,13.7-1.1,21.6-3c10.1-2.4,16.1-5.2,24.2-9c5.9-2.7,11.3-4.8,15.7-7.4
				c6.2-3.6,10.7-7.7,15.9-8.9c-0.6,1.8-1.3,5-6.5,8.3c2.7-0.1,6.5-0.3,6.5-0.3s-3.6,2.2-10,7c-3.9,3-9.2,8.1-14.5,11.5
				c-3.4,2.2-7.2,3.8-9.7,5c-6,3.3-8.4,5-12.3,9c1.4-0.1,1.5,0,1.5,0s-5,0.6-8.5,2.5c-0.7,0-2-0.3-4.3,0.4c-1.8,0.6-4.1,1.9-6.5,2.5
				c-3.4,1-4.6,0.6-4.6,0.6l0.6,1.1c0,0-4.5-0.1-6,0.1c0.3,0.1,0.2,0.2,0.2,0.2c-0.3,0-0.5,0.1-0.7,0.3c-0.7,0.5-1.5,0.8-2.3,1
				c-0.5,0.1-0.8,0.1-1.4,0.2c0.2,0.5,1.7,3,2.3,4.5c-0.6,0.4-9.1,6.8-9.1,6.8c0.3,0.4,0.5,0.9,0.6,1.3c0.3,0.8,0.4,2,0.6,2.6
				c0.6,1.1,1,1.3,1,1.3s-1,0.2-2.8,0.6c-1.5,0.4-3.4,1-6,1.4c-0.8,0.1-1.6,0.2-2.4,0.2c0.4,0.8,2,4-1,7.7c-3.1,3.7-4,4.2-5,6.6
				c-0.5-0.4-1-0.7-1.5-1c-1-0.5-2.4-1.1-2.9-2c-0.3,1.2-0.7,2.4-1.1,3.6c-0.9,2.5-2.3,5-2.6,6.9c-1-1.1-2.9-3.4-5.5-2.9
				c-2.6,0.5-4.7,4-5.1,5c0-0.6-0.5-1.1-0.6-0.4c-0.1,0.8-1.5,9.6-9.5,16.6c-0.1-1.8-0.1-5.7-0.3-7c-0.7,0.8-1.7,1.9-7.1,4.2
				c-5.3,2.3-4.5,4.7-4.5,4.7s-0.5-3.8,2.4-7.7c2.9-3.9,4.7-5.8,4.7-6.1c0-0.3-0.2-0.6-0.4-0.8c-0.4-0.4-1.1-0.8-1.1-1.1
				c0.5-0.2,5-2.3,4.7-6.8c-0.3-4-2-6.1-3.2-7.6c-0.2-0.2,1.8-1.6,1.5-2c-0.2-0.3-2.6-2-2.9-3c0.1-0.6,0.2-1.1,0.4-1.7
				c0.3-0.8,0.5-1.4,0.4-2c-0.2-0.9-1.2-3.6-1.5-3.8c0.3,0.1,2.2,0,2.2,0s-1.5-2.4-1.8-3.6c-0.3-1.1-0.8-4.1-1.1-4.7
				c0.6,0.1,2.2,0.2,2.2,0c0.1-0.6-1.4-1.5-0.7-2.3c0.5,0.1,1.3,0.5,2.2,1.5c-0.5-1.2-1.2-3.6-2.8-4.5c0.7-0.3,3.3-1,5.5,0.4
				c2.2,1.3,3,3.2,3,3.2s1.3,1,3.4,2.5c2.3,1.9,5.3,4.5,10.1,6.4c1,0.6,3.6,0.6,5.5,0.2c0.8-0.2,1.6-0.5,2.3-0.9
				c0.3-0.2,0.5-0.3,0.8-0.4c-0.4-0.8-0.9-1.6-1.4-2.4c0.6,0,1.4,0.1,1.4,0.1s0.5-1-1.6-3c0.5-0.5,1-0.8,1-1.5c-0.6-0.1-1.8-1-2-1.4
				c0.4-0.3,0.9-1.1,1.6-1.4c-0.6-0.5-2-2.4-2.6-2.5c0.6-0.2,1.2-0.5,1.8-0.8c0,0-3.2-0.8-4.2-1.5c-1-0.8-2.5-2-3.4-2.4
				c-0.9-0.4-2.6-0.6-3.3-1.3c0.6,0.2,1.7,0,2.4,0c0.6,0,0.8,0.1,1,0.1c-0.1-0.3-0.1-0.8,1.4-1c0.7-0.1,1.4-0.3,2-0.6
				c0,0-1.4-0.1-3-1.6c-1.6-1.5-2.9-2.7-3.8-2.9c-0.9-0.2-2.7,0.6-3.8,0.6c-1.5-0.2-2.2-0.9-2.2-0.9s-5,0.5-16.2-6.4
				c-9.7-5.9-13.9-11.1-13.9-11.1c-0.9-0.3-1.8-0.7-2.6-1.2C1454.1,501.3,1449.1,497.3,1449.2,492.2L1449.2,492.2L1449.2,492.2z"/>
			<path class="st23" d="M1588.5,264.6c0.9,0.3,1.7,0.8,2.2,1.5c1.8,2,2.9,5.9-1.1,10.1c1.6,0.6,2.2,0.8,3.6,0.6
				c-1.4,1.7-4.6,5.2-4.8,8.3c-0.2,2.5,1.4,3.3,1.4,3.3s-2.4,2.8-2.5,7.5c1.1-1.3,2.4-2.5,3.7-3.6c2.8-2.2,6.7-4.8,9.3-6.4
				c0,0.7,0.1,1.3,0.3,2c0,0,4.9-4,9-2.2c1.9,0.8,1,3.5,1,3.5s2.5-0.9,4.3,0.8s4.3,6.4,5.6,8.2c0.6,0.8,2,2.4,3.6,4.9
				c2.1,3.5,3.8,7.1,5.2,10.9c0.1-2,0.6-5,6.2-3.1c5.6,2,12,6.1,17.3,14.3c5.3,8.1,6.7,17.3,9.4,20.8c2.7,3.4,5.5,9,5.7,11.3
				s-0.8,9.9,4.8,30.5c1.6-6.4,4-20.5,4-20.5l1.3-12.5l1.5-38.6l-40.3-33.5l-31.5-22.9l-20.5,2L1588.5,264.6L1588.5,264.6
				L1588.5,264.6z"/>
			<path class="st24" d="M1663.3,322.1c0,0-0.6-3.8-10-10.1c-9.5-6.3-16.9-6.3-23.7-11.6c-5.2-4.2-10.7-13.9-14.2-17.1
				c-3.4-3.1-4-12.3-4-12.3l11.6-9.8l17.3-25l14.6-16.1l7,9.8l9.7,11.5l5.4,23l2,33.6L1663.3,322.1L1663.3,322.1z"/>
			<path class="st25" d="M1675,362.4c0.3-5.1-0.3-10.2-1.9-15.1c-2.5-7.8-7.9-21.6-10.5-26.8c-1-5.7-0.3-6.2,0.8-6.8
				c1.1-0.6,5.2-3,7.5-11.3s9.3-8.5,9.3-8.5l4.3-3.2l6.6,16.4l5.7,14.8l1.8,11.3l1.3,9.7l-3.1,20.4l-15.3,13.9L1675,362.4
				L1675,362.4L1675,362.4z"/>
			<path class="st26" d="M1461,590.2v-0.4c0.3-0.2,0.6-0.5,0.8-0.8c0.3-0.4,0.5-0.8,0.6-0.9c0.4-0.2,2.2-0.8,3.1-0.6
				c0.9,0.2,3.4,1.2,4.8,1.1c2.7-0.1,5.9-2.2,10.9-1.2c7.6,1.4,9.4,6.6,13.7,9.5c3,2,6.1,1.1,6.5,1.1h1c0.2,0,1.6-1.6,2.3-1.5
				c1.5,0.1,1.7,1.3,2.6,1.4c2.2,0.3,6.6-1.1,8.7-0.6c1.3,0.4,2.3,1.4,2.7,2.7c0.5,1.4,0.1,3.2-1,4.2c-2.3,2.2-4.6,4.2-5,6
				c0.6,0.4,1.1,0.9,1.7,1.4C1495.9,607,1477.9,599.7,1461,590.2L1461,590.2z"/>
			<path class="st27" d="M1662.6,514.4c0,0,5.9-7.9,8-11.8c2-4-6.5-55-6.5-55l17.1-56.2l-0.5-18.3c0,0,0.8-16.9,2.8-24.2
				c2.3,4.2,9.7,9.3,11.2,12c0.7-5.2,3.3-16,2.9-27.6c1.4,2.2,4.8,23.9,4.8,23.9l3.4,14.6l4.4,15.6l4.9,16.4l2.9,11.3l1.7,2.7
				l1.4,4.8l1.3,5.2l3.8,12.1l2.2,9.9l1.8,18c0.4,1.4,0.7,2.8,0.8,4.2c0.1,2-0.3,3.1-0.3,3.5s0.6,4.3,0.4,7.3
				c-0.4,3-0.4,5.3-2.7,7.5s-3.8,15-3.8,15l-4.2-2.8c0,0,0.8-3.8-1.1-7.3s-5.8-4.2-8-3.6c-2.2,0.5-6.5,1.1-7.9,2.4
				c-1.3,1.2-4.6,5-7.6,6.7c-3.7,2.3-9.8,2.4-13.1,3.2c-3.3,0.8-6.9,3-10.8,5.6C1669.1,511.4,1666,513.1,1662.6,514.4L1662.6,514.4
				L1662.6,514.4z"/>
			<path class="st28" d="M1662.6,597.3c0,0,0.2,0.2,0.7,0.4c26.9-12.6,51-30.5,70.9-52.6c-0.2-7.7-0.5-15.5-0.8-18.5
				c-0.6-6.2-0.2-12.5-0.4-16.1s-2.2-18.5-3.2-22.3c-1-3.8-3-5.7-3.3-5.7c-0.3,0.1-1.9,7.2-1.9,9s-0.4,6.1-0.4,7.2
				c-0.3-0.1-0.4-0.8-0.4-1c-0.4,0.9-0.8,2.6-1,2.8c-0.2,0.2,0.3-1.6,0-2c-0.3-0.4-0.7-0.2-0.6-1.1c0-0.6,0.1-1.1,0.3-1.7
				c0,0-1.1,1.7-2,5.9c-0.8,4.2-0.8,4.3-1.1,4.7c-0.3,0.5-1.8,2-1.9,2.5c-0.1,1,1.4,2,1.5,2.6c0.1,1-1.3,5.3-1.8,7.5
				c-0.5,2.2-0.3,6.4-0.7,8.5c-0.4,2-0.7,3.1-2,3.9c0.9,0.2,1.9,0.5,1.9,0.5s1.3,5.6-2,10.4c-1.2,1.7-1.5,2.4-2.8,3.9
				c-2.5,2.8-4.5,6-4.7,8.1c-0.1-0.6-0.2-1.2-0.3-1.9c0,0-3.9,4.6-5.6,7.2c-2.2,3.4-5.1,3.2-6,4c-0.8,0.8-1,2.3-0.7,3.6
				c-0.7,0.2-2.2,0.5-3.1,3.4c-0.5,1.5-1.6,3-3.4,4s-3.9,1.3-5,1.6c0.9,0.3,1.3,0.3,1.8,0.6c-0.6,0.9-3.2,2.4-6.1,4.3
				c-2.9,1.8-4.3,4.4-5,6.1c-0.7,1.6-1.9,2.6-3.6,2.8c0.7,0.5,1.9,1.5,2.4,1.9c-0.8,0.2-2.2,0.2-4.8,2.4
				C1664.8,596.5,1663.9,597.1,1662.6,597.3L1662.6,597.3L1662.6,597.3z"/>
			<path class="st29" d="M1610,614.9c1.4-1,3-1.9,4.7-2.5c5.9-2.4,12.2-2.8,14.6-3.6c2.3-0.8,4.2-1.8,7.1-2.4
				c-0.1,0.7-0.1,1.3-0.2,1.9C1627.6,611.1,1618.8,613.3,1610,614.9L1610,614.9z"/>
			<path class="st30" d="M1718.9,459.3c0,0-1.2,6.6-3.4,10.7s-4.5,9.9-4.5,9.9c0-1.3,0.2-2.6,0.5-3.8c-2.7,1.6-9.4,5.4-11.2,7.1
				c-1.8,1.6-4.8,4.4-5.5,5.7c1.8-5.2,3.6-9.9,3.9-12.1c-2.7,2-15.5,12.5-22.1,19.4l-20.6,16.7c-2.4,1.3-4.8,2.4-7.3,3.4
				c-3.6,1.5-7.8,2.8-10.9,4c0.8-2.2,2.2-4.2,4-6.1c2-1.9,7.9-8.3,8.8-11.3c0.8-3.1,1-5-0.1-7.6c-1,0.3-3.4,0.4-5,0.8
				c-1.6,0.5-3.3,2.2-3.3,2.2s1.2-6.9,3.8-13.5c-2,0.1-5.3,0.6-5.3,0.6s4.7-7.9,12.7-13.4c-2.5,0.5-4.9,1.3-7.2,2.2
				c-4.7,2-9.8,4.9-13.7,6.5c2.2-3,17.3-24.6,26.3-44.8c9-20.1,12.3-25.3,14.3-36.1c1-5.3,0.7-13.3,1-20.3c0.3-7,1.1-13.3,0.6-17.5
				c2.3,2.9,11.1,11.1,11.4,29.5c0.3,18.4-8.4,43.2-17.6,56.6c2.2,0.6,8.1,1.4,14-9c6-10.4,5.9-13.3,8.1-17.6
				c0.3,2.2,0.2,2.9,0.2,2.9s8.7-10.6,12.8-23.9c0.8,5.7,3.3,10.8-0.6,21.3c-3.4,9.5-7.9,11.8-7.9,11.8s2.2-0.4,5.5-2.4
				c0.6,1.4,0.5,3,1.4,3.6c0.9,0.6,2.2,1.5,2.4,2.4c1-1.5,2.6-3.5,3.1-4.9c-0.4,3-0.6,16.1,0.7,22.8c2.9-0.3,5.9-0.5,8-5.7
				c-1.4,5.2-1.4,8.3-0.5,12.7C1717.5,461.2,1718.9,459.3,1718.9,459.3L1718.9,459.3L1718.9,459.3z"/>
			<path class="st31" d="M1620.5,250.3c0,0-2.9,1.2-7.9,1.2c-4.3,0-3.1-1.7-9.8-1.7c-10.4,0-46.6,6-53,5.9
				c-4.1-0.1,13.9,1.8,13.9,1.8l46.2,0.6l9.3-0.8l3.4-7L1620.5,250.3z"/>
			<path class="st32" d="M1500.8,340.6c0,0-5.9,4.5-8.4,8c-2.5,3.5-3.8,5.7-6.7,8.5c0.7,0,1.3-0.1,2-0.3c0,0,0,0.8-0.5,0.9
				c0.8-0.1,1.6,0.2,2.2,0.8c-0.8,0.5-3.1,2.7-1.3,5.4c1.3,2,4.1,2.2,4.1,2.2s-0.6,1.9,2,1.7c5.8-0.3,12.3-2.8,15.3-2.2
				c3,0.8,4.7,1,6.8,4.7c2.2,3.6,4.2,4.2,4.2,4.2s1.3-3.4,1-8.4c1.1-2.7,1.7-5.6,1.8-8.5l-2-14.5l-8.6-10.9l-11.1,6.2L1500.8,340.6
				L1500.8,340.6z"/>
			<path class="st33" d="M1511.4,338.5c0,0,0.8,2,4.3,2.2c-0.4,0.8-0.4,1-0.3,1.6c0.1,0.6,0.2,1.6,0.2,1.6c0.4-0.2,0.7-0.4,1-0.8
				c0.2,0.8-0.2,2.2,0,3.1c0.1,0.6,0.3,1.1,0.6,1.7c0.1-0.1,0.1-0.3,0.2-0.4c0.1-0.2,0.7,2,2.6,3.8c0-0.3,0.1-0.5,0.2-0.8
				c0,0.5,0.2,0.9,0.5,1.3c-0.1-0.1-0.3-0.2-0.4-0.3c0,0,0.2,6,1.2,9.1c0.2-0.2,0.3-0.4,0.5-0.6c0-0.2-0.1,1.7-0.3,3
				c-0.3,1.3-0.1,3.2-0.1,3.2c0.7-0.5,1.4-1,2.2-1.3c1.1-0.5,3-1.9,4.1-5c0.7-1.8,1.2-3.6,1.5-5.4c0.4,0.7,0.6,1.5,0.7,2.3
				c0.1,0.9,1.9,0.5,1.9,0.5l0.4-4.1l2.2-9.4l2-5.8l9.8-15.4l17.8-13.7l15.5,3.6l13.1-17.8l-22.6-13.6l-21.4,2.2l-19.4,26.9
				l-15.5,24.4L1511.4,338.5L1511.4,338.5L1511.4,338.5z"/>
			<path class="st34" d="M1623.2,299.6c0,0-1.3,0.3-5.1,2.3c-3.8,2-6.5,2.6-8,5.5c-1.5,2.9-1.6,5.2-1.6,5.2s2.6-1.1,4.1-1.5
				c1.6-0.4,3.4-0.3,3.2,0.4c-0.2,0.4-0.4,0.9-0.7,1.2c0,0,3-0.1,2.9,1.4c-0.1,1.5-0.6,3.1-1.1,3.8c-0.6,0.8-2.9,1.9-3.2,2.7
				c-0.6,1.8,0.3,1.9-0.1,3.3c-0.3,1.4-1.5,4.1-5.6,8.9c-4.2,4.8-6,8.2-6,8.2s-2-3.8-3.1-7.1c-0.7,0.4-4.8,2.6-4.8,2.6l-9.3-32.5
				l0.2-2.2c0,0,0.8-1,1-2.9c-1.4-0.5-1.6-0.8-3.4-2.6c-1.9-1.8-3.4-3.9-6.5-5.4c-0.5-0.8-1-2-3.3-2.4c-2.3-0.5-3.6-0.8-3.6-0.8
				s1.2-0.5,1.8-1.4c-1.4,0.2-2.5,0.6-5.6,0.6c-3.1-0.1-3.4-0.2-5.1,0.1c-1.7,0.3-3.7,1-4.5-1.6c-0.8-0.6-2.6-0.1-4.1,2.2
				c-1.5,2.2-2,4-5,4.9c-0.2,1.3-0.7,2.5-1.3,3.6c-0.8,1.4-2.2,2.8-3.9,4.9c-2.8,3.3-2.3,8.7-6.8,12.9c-4.5,4.1,0.7-11.5,0.7-11.5
				l7.2-17.3l20.5-20.1l31.8-2.2l3.1,16.5l15.5,5.3L1623.2,299.6L1623.2,299.6L1623.2,299.6z"/>
			<path class="st23" d="M1628.3,303.2l-13.4-19.3l-9.4-7.2c0,0-6.7-12.3-7.1-12.7c-0.4-0.3-6.7-0.9-10.7-1.2l0.7,1.9
				c0.9,0.3,1.7,0.8,2.2,1.5c1.8,2,2.9,5.9-1.1,10c1.6,0.6,2.2,0.8,3.6,0.6c-1.4,1.7-4.6,5.2-4.8,8.3c-0.2,2.5,1.4,3.3,1.4,3.3
				s-2.4,2.8-2.5,7.5c1.1-1.3,2.4-2.5,3.7-3.6c2.8-2.3,6.7-4.8,9.3-6.4c0,0.7,0.1,1.3,0.3,2c0,0,4.9-4,9-2.2c1.9,0.8,1,3.5,1,3.5
				s2.5-0.9,4.3,0.8c1.8,1.8,4.3,6.4,5.6,8.2c0.6,0.8,2,2.4,3.6,4.9c2.1,3.5,3.8,7.1,5.2,10.9c0.1-1.5,0.4-3.6,3-3.6L1628.3,303.2
				L1628.3,303.2z"/>
			<path class="st35" d="M1427.9,358c0,0-0.9-2.4,0-6.9c0.9-4.6,2.4-6.8,2.9-13.5s4.9-15.2,4.9-15.2l12.2-5.5l8.6,2.4l2.5,11.5
				l-10.9,6c0,0-0.6,2.5-3.6,4.6c-3.1,2-7.3,3.6-8.3,5.7c-0.6,1.3-1.1,2.6-1.3,4c0,0-3.1-0.6-5,1.4
				C1427.9,354.6,1428,356.5,1427.9,358L1427.9,358z"/>
			<path class="st36" d="M1452.4,355c0,0-1,0.6-1.8,2.3c-0.7-1.2-2.5-8.4-2.6-14.9c-0.1-6.5-0.5-8.1,1-10.3c1.5-2.2,7.4-4.6,6.5-8.6
				c-0.8-3.8-4.3-5.4-8.6-4.3c-3,0.8-5.2,7.1-8.3,10.3c-2.3,2.4-5.1,2-5.9,3.4c-1,1.8-0.1,3.6-0.4,4.7c-0.1,0.4-1,2.4-2.7,4.9
				c-3.4,5-9.3,12-10,18.3c0.3-3.6,0.1-3.6,1-7.6l-0.6-0.9l3.7-12.3l2.4-10.1l5.4-17l9.5-17.3l9.3-10.4l9.7,0.6l1.1,14.5l5.5,27.3
				l11.6,14.3l-18.6,12.6L1452.4,355L1452.4,355L1452.4,355z"/>
			<path class="st37" d="M1458.2,360.1c0,0-1.6,0.4-2.2,0.1c-0.6-0.3-1.1-0.6-0.9-1c0.2-0.4,1.2-1,1.2-1.3c0-0.6-0.4-1.1-0.9-1.1
				c-0.9-0.1-1.1,0.5-1.1,0.5s-0.8-0.6-1.5-0.8c0.4,0,0.8-0.1,1.2-0.1c-1-0.5-2.2-0.8-3.3-0.9c0.9-0.6,2.8-2.2,4-2.2s2-0.2,1.8-0.8
				s-1.1-1.6-2.2-2c0.4-0.5,0.6-1.1-0.3-3c-0.9-1.9-0.6-3.1-0.3-3.6c0.3-0.6,1.2-1.6,1.7-2.2c0.5-0.6,0.8-1.5,1.6-2
				c0.4-0.3,1.6-0.8,2.8-1.2c1.3-0.5,2.4-1,3.2-0.5c0.8,0.6,0.5,1.3,0.5,1.3s2.6-0.9,5,0.3c2.3,1.1,8.1,1.9,8.1,1.9l2,4.1
				l-13.6,11.6l-5.6,2.8L1458.2,360.1L1458.2,360.1L1458.2,360.1z"/>
			<path class="st38" d="M1477,341.1c0,0-4.2,2.8-5.1,3.8c0.6,0.1,1.5,0.5,1.1,1c-0.5,0.6-3.2,2.5-4.7,4.4c-1.6,1.9-3.1,4.2-3.6,5.3
				c-0.6,1-4.9,4-6.4,4.4c3.1,0,9.4-3.8,11.7-3.8c-0.1,1.1,0.6,2.4,2,2.5c1.3,0.1,5.1,0.8,10.3-2.4c5.1-3.1,3.4-5.4,5.6-6.9
				c4.1-2.7,5.8-5.2,8.1-6.7c2.3-1.5,3.4-1.9,3.4-1.9s0.1-1.1,0.7-1c0.4,0,0.7,0.3,0.8,0.6c0,0,3.9-2.8,9-3.6
				c-0.1-0.1-0.2-0.1-0.3-0.3c0,0,0.4-0.2,0.5-0.4c0,0,0.3-0.4,0.5-0.2s0.5,1.6,0.8,2.2c0.8-0.4,2.4-3.9,2.4-3.9l3.8-11v-10l-3,0.6
				l-22.5,9.6l-13.6,14.1L1477,341.1L1477,341.1z"/>
			<path class="st39" d="M1541.7,292c1.2-0.3,2.4-0.8,3.5-1.4c-0.5,1.2-0.5,2.5-2.4,5.4s-2,3.3-3.6,6.3c-1.6,3.1-1.8,7.6-3.3,9.6
				c0.7-0.3,1.4-0.5,2.2-0.6c0,0-1.5,1.3-2.2,2.7c-0.6,1.4-1.8,4.3-4.6,6.1c-2.8,1.8-6.4,2.9-10.2,7.1c-3.8,4.1-7.8,9.4-9.7,11.3
				c1-1.8,2.4-5.3,2.8-7.7s-0.1-5.2,0.6-8.3c0.6-3.1,0.6-5.3,3.7-10.8c3.1-5.4,8.4-24.3,8.4-24.3l11.4-3.6L1541.7,292L1541.7,292
				L1541.7,292z"/>
			<path class="st40" d="M1533.5,285c0,0-3.4,5-4.4,9.4c-0.9,4.4-0.1,4-0.6,6.2c-0.3,1.3-0.3,2.7,0,4c1.2-1.9,2.8-3.5,4.8-4.7
				c3.3-2,5.9-3.4,7.5-5c1.6-1.8,2.9-4.7,6.4-6.9c-1.4-0.2-3.4-0.8-3.7-0.8c1.4-1.6,5.6-4,9.8-6.9c4.2-3,3.9-4.2,10.8-7.2
				c-2.2,0.4-3.3-0.2-5.2,0c0.7-1.6,3.4-2.4,6-5c2.6-2.6-1.7-6.5-1.7-6.5l-20,12.1L1533.5,285L1533.5,285z"/>
			<polygon class="st41" points="1479.3,276 1479.7,272.4 1485.4,263.2 1491.4,247.1 1491.4,225 1491,212.3 1491.9,204 
				1492.6,201.3 1493.4,200.3 1498.3,202.8 1505,212 1505.7,229.7 1499.1,257.7 1480.4,278.1 			"/>
			<path class="st31" d="M1494.2,199.3c0,0-3,0.1-3.6,12.6c-0.6,12.5-0.9,19-1.4,25.2c-0.5,6.2-1.5,9.9-2,13.6s-0.8,8.6-2.5,11.6
				c-0.7,1.4-2.3,5.8-6.1,9.1c-4.2,3.6-10.5,6.2-11.4,6.4c-1.7,0.4-10.1,1.2-13.6,3.1c-1.2,0.6-3.3,1.4-5.6,3.6
				c-4.6,4.1-10.7,11.5-15.1,20.4c-6.7,13.3-13.5,50.9-13.5,50.9l1.5-2.5c0,0,0.2-3.4,3.6-9.3c3.3-5.9,2.3-12.6,6.9-23.9
				c1.8-4.3,4-9.9,6.7-14.7c4.3-7.8,9.5-14.4,14.8-18.1c8.6-5.9,18.1-7.2,18.1-7.2l10.2-6.8c0,0,1.8-3.4,4.1-7.4
				c3.3-5.5,7.5-11.7,8.4-20.7c1.4-13.3-2-22-1.8-29.9c0.2-7.9,0.3-13.7,1.9-15.1C1495.3,198.7,1494.2,199.3,1494.2,199.3
				L1494.2,199.3L1494.2,199.3z"/>
			<path class="st42" d="M1494.2,258.8c0,0,4.5-11.1,6.5-20.9c0.4-2,1.1-3.9,1.3-5.5c0.9-9.3,1.2-13.1,0-18.2
				c-0.9-3.8-4.6-7.1-6.5-9.8c-1.9-2.7-2.7-3.8-2.3-4.3s1.9-1.5,3.3-1.4c3.1,0.1,6,1.4,8.1,3.8c2.9,3.4,5.2,14.8,5.2,14.8l2.4,15.1
				l6.2,19L1494.2,258.8L1494.2,258.8L1494.2,258.8z"/>
			<path class="st43" d="M1536.4,247.3c0,0-0.8,0.4-2.3,0c0.1,1.3-0.5,2.5-1.5,3.2c-1.6-0.6-16.5,0.6-16.5,0.6s-6.9-1.2-9.1-10.4
				c-1.5-6.1,1.1-14.5,0.3-20.1c-1.3-8.2-3.2-9.8-3.4-12.3s-0.4-3.2-0.4-4.8c-0.8-0.2-1.3-0.5-2.2-0.5c-0.2-0.8,0.2-1.4-0.6-2.7
				c0.5,0.2,3.6,0.6,7.2,4c3,2.8,3,3.8,3.4,4.4c0.6,0.6,5.1,4.5,7.1,8.4s5.8,16.4,6.7,18.5c0.3,0.8,0.8,1.7,2.2,3.6
				C1529.5,242,1532.7,246.5,1536.4,247.3L1536.4,247.3L1536.4,247.3z"/>
			<path class="st31" d="M1511.8,209c2.3,3.7,4.4,7.6,6.2,11.5c2.2,5,3.6,9.2,6.4,12.6c-1.5-4.4-4.2-13-5.8-16.1
				C1516.8,213.7,1513.2,210.2,1511.8,209L1511.8,209L1511.8,209z"/>
			<path class="st44" d="M1486.1,271.4c0,0-3.8,0.9-10.9,4.7c-2.3,1.2-4.6,2.2-6.7,3.2c-5.6,2.5-11.6,4.9-16.4,6.2
				c0.4,0.5,0.6,0.6,0.6,0.6s0,1.9,1,2.9c-0.6,0.6-8.1,5.7-5.9,23c1.5-0.6,3.3-1.3,3.6-1.3c0.5,0.1,0.6,1.3,1.1,1.3
				c0.6,0,2.4-0.8,4.4-3.3c-0.1,1-1.2,11.3,4.9,18.3c1.1-1.3,4-5.7,4-5.7l0.1-1.4c0,0,0.3-4.9,1.9-9.4s4.7-7.8,4.7-7.8l16.2-23.2
				L1486.1,271.4L1486.1,271.4L1486.1,271.4z"/>
			<path class="st45" d="M1470.9,305.4c-0.7,0.5-1.6,0.9-2.4,1.2c-0.3-0.9-0.6-4.2,1.6-7.4c2.6-3.8,8.3-8.8,9.9-12.8
				c1-2.5,0.6-8.9,9.7-17.1c9.1-8.2,12.6-11,12.6-11l14.7-7.4l18.1,7.1l-9,35.2l-7,16.5l-27.7-5.2L1470.9,305.4L1470.9,305.4
				L1470.9,305.4z"/>
			<path class="st46" d="M1481.5,295.8l3.4-4.3v-3.1c0,0,3.8-1,7.9-5.2c4.1-4.2,9.8-12.3,14.9-11.8c5,0.6,5.5,11,5.7,13.9
				c0.2,2.9,0.8,9.6,1.9,13.1c1.1,3.6-12.3,17.1-12.3,17.1l-9.1,6.9L1481.5,295.8L1481.5,295.8z"/>
			<path class="st47" d="M1492.2,331.8c0,0,2.8-4.4,0.7-5.3c1.2-2.7,3.4-5.6,3.4-5.6s1.6-3.9,6.7-8.8c5.1-4.9,8.3-8.1,9.2-11.3
				c0.5-2.1,0.8-4.3,0.8-6.5c0.6,0.5,1.2,0.9,1.8,1.2c0.8,0.4,4.8,3.6,4.2,10.2c-0.6,6.6-3,9.3-3,9.3s-2.3,2.4-4,3.6
				c-1.8,1.2-2.4,2.6-5.4,2.7c0.3-0.2,0.7-0.4,1-0.6c0,0-3.1-0.4-4.8,1.1s-5.2,6.2-7,7.6C1494.2,330.5,1492.2,331.8,1492.2,331.8
				L1492.2,331.8L1492.2,331.8z"/>
			<path class="st48" d="M1618.1,258c-4.5-1.6-9.2-2.6-13.9-2.7c-8-0.3-19.6,0.2-31,0.3c-12.3,0.1-23.4-4.2-38.8-5
				c-2.5-1.5-9-8.2-29.1,5.9c1.2-0.1,14.6-3.1,19.3,2.7c4.7,5.8,3.4,15.7,2.7,18c-1.2,5.2-5.2,12.9-6.7,18.2
				c-1.6,5.3-1.2,8.2-2.3,11.9c-1.1,3.8-3.6,5.6-2.2,9.9c2-1.2,3-1.2,6.3-8.6c3.3-7.4,2.6-12.7,8.1-18.9
				c5.3-6.3,14.2-14.9,17.6-17.1c3.4-2.2,30.2-16.1,58.3-2.8C1613,269.2,1618.1,258,1618.1,258L1618.1,258L1618.1,258z"/>
			<path class="st49" d="M1516.5,252.9c0-0.3-0.1-0.6-0.2-0.8c-0.3-0.6-0.6-1.1-1-1.5c0,0-6.7-1.2-10-0.8c-5.9,0.6-11.2,8-13.7,11.7
				c-2.5,3.8-5.6,9.6-9,12.6c0-0.3,0-0.6-0.2-0.8c0,0,0.2,0.3-0.2,0.6c-0.4,0.4-0.4,0.6-0.2,0.8l0.6,0.6c0.2,0,5.4-2.4,12.5-9
				c7.6-6.9,13.4-10.5,16.4-11.7C1513.1,253.7,1514.8,253.2,1516.5,252.9L1516.5,252.9L1516.5,252.9z"/>
			<path class="st50" d="M1645.8,224.4c0,0-1.2,1.5-2.7,3.2c-3.4,3.6-7.8,7.6-11.5,11.7c-3.6,3.9-7.6,7-12.1,12.2
				c-4.5,5.2-9.7,10.9-11.1,12.6c-1.2,1.7-2.2,4.4-2.2,5.8c-0.6-0.5-1.4-0.9-1.4-0.9c0.3,0.6,0.7,1.2,1.1,1.7c0.9,1.3,2.4,3,3.2,4
				c0.9,1.3,1.6,2.8,2,4.3c0.5,0.1,3.4,0.6,7-5.3c3.6-6,8.4-12.6,8.4-12.6l7.6-11.3l4.8-9.6l6-10.7L1645.8,224.4L1645.8,224.4
				L1645.8,224.4z"/>
			<path class="st31" d="M1653.6,216.7c0,0-4.6,3.8-6.4,6s-6,8.2-6,8.2l1.5-0.2l7.7-6.8l3-5.3L1653.6,216.7L1653.6,216.7z"/>
			<path class="st51" d="M1652.2,518.1c0,0-0.1-3.1,1.7-5c1.8-1.9,6.3-4.6,10.7-14.8s4.9-12.6,4.9-12.6s-7.9,6.8-12.7,8.3
				c1.1-2.4,1.8-4,2.3-5.2c-0.6-0.6-3.4-1.2-3.6-1.5c1.5-1.5,2.3-5.2,5.4-7.7c3.9-3,11.1-8.2,16.7-12.8s16.6-15.3,18-18.4
				c0.8,1.2,1,2,1,2s-5.5,7.2-8.4,11.8c-2.5,3.9-2.3,6.2-2.3,6.2l5.2-2.3c0,0,1.5,5.6-5.3,14.1c3-1.1,4.2-0.5,5.9-1.4
				c-2.8,1.8-6.7,4.2-10.3,10.9c-3.6,6.7-8.4,14.5-16.6,19.3C1656.7,514.2,1652.1,518.1,1652.2,518.1L1652.2,518.1L1652.2,518.1z"/>
			<path class="st52" d="M1631.6,262c0,0-3.1,6.5-3.6,11.5c-0.1,1.2-0.4,2.2-0.4,3.6c-0.1,4.5,0.3,9.6-0.7,11.9
				c-0.4-0.9-0.6-1.6-0.9-2c-0.6,1.6-1.6,6.6-2.4,8.4c-0.4-1.2-1.2-5.4-1.1-10.4c0.1-5,0.2-5.9,0.2-6.9c-0.2,1.5-1.2,3.6-1.6,4.8
				c-0.6-1-1.2-2.4-2-3.5c-0.5,0.8-1,1.9-1.5,2.4c-0.1-0.5-0.3-1.7-0.4-3.4c-0.1-2-0.2-4.5-0.1-5c0.2-1,1.8-5,5.1-8.7
				c4-4.4,8.1-12.9,9.4-15.5c1.2-2.6,6.4-13.5,6.4-13.5h3.9l-5.7,13c0,0-3.4,7.1-5.2,9.7c-1.8,2.6-5.5,10.1-7.2,13
				c1.2-1.6,2.2-2.4,3.4-3.9C1628.4,266.6,1631.6,262,1631.6,262L1631.6,262L1631.6,262z"/>
			<path class="st53" d="M1653.6,216.2c-0.6,2-1.7,3.8-3,5.4c-2.3,2.8-7.4,6.6-9.8,9.6c-2.2,2.9-6.7,10.9-4.7,20.3
				c0.7-2,2.2-6.1,5.9-10.7s7.8-9.9,9.7-14c2-4.1,2.2-7.4,2.2-7.4l0.7-0.9l-0.5-2.2L1653.6,216.2L1653.6,216.2z"/>
			<path class="st31" d="M1730.3,467.8c0,0-1.5-4.1-2-7.9c-0.5-3.8,0.7-4.5-0.6-8.8c-0.8-2.6-2.3-2.3-2.7-2.6s-0.6-4.3-0.6-6.5
				s-0.1-5-0.5-6.2c-0.6-0.5-0.9-0.8-1.8-3.6c-0.9-2.8-1.4-4.2-1.9-5c-0.5-0.8-1.8-1.6-1.8-2.4c0-1.7,1.5-2.5,1.5-3
				c-0.1-0.9-1.2-0.2-1.5-0.5c-0.4-0.5,0.9-3.2,0.5-3.6c-0.2-0.2-1.5,1.4-1.9,1c-0.4-0.5-0.8-5-1.5-8c-0.6-2.9-1.3-5-1.4-5.9
				c-0.1-0.8-5.2-15.5-6.5-19.1c-1-3-1.9-6.1-2.5-9.2c-0.4-1.8-0.6-5.4-0.8-5s-0.1,2.2-0.4,2.2c-0.3-0.1-1.2-6.6-1.5-7.6
				c-0.3-1-1.9-4.5-2.2-7c-0.4-2.5-1.2-9.2-1.8-13.7s-0.8-6.4-0.8-7.5c0.1-2.8-0.1-5.5-0.5-8.3c-0.7-4.8-2.2-10.6-3.6-14
				c-2.5-6.4-9.3-22.7-10.5-26.7c0-1,1.3-0.5,1.3-0.5s3.3,8.3,5.7,14.6c2.3,6.4,4.6,12,5.2,12.6c0.5,0.6,4,6.8,5.6,17.1
				s2.2,19.7,3.1,26c0.5,3,0.8,6.2,1.8,9.4c1,3.5,2.6,7,4.7,12.5c1.8,4.6,3.1,8.4,3.8,11.7c0.8,4.2,0.8,7.4,1.3,9.5
				c0.5,1.8,1.1,5.3,2.7,10.5s3.9,11.8,5.5,15.9c3.1,8.3,4.5,15.2,5,18.9C1729.3,450.7,1730.7,463.8,1730.3,467.8L1730.3,467.8
				L1730.3,467.8z"/>
			<path class="st54" d="M1653.8,215.8l-0.2,0.5c0,0,0.6,0.2,0.5,0.9c0,1-0.1,2.1-0.2,3.1c-0.2,1.3-0.6,2.4-0.6,3.2
				c0,1.8,0.3,3.8-2.2,8.9c-0.7,1.4-1.2,2.6-1.6,3.4c-0.9,2-1.1,2.4-2,3.3c1.3-0.8,6.1-3.8,8.5-3.3c-1.7,0.9-4.2,2.8-5.8,5.2
				c0.4,0.1,2,0.4,4.5,0c4.2-0.6,8.9-2.2,13-1.9c4.5,0.3,2.7-5.4,2.7-5.4l-5.2-11.5l-9.8-6.9L1653.8,215.8L1653.8,215.8z"/>
			<path class="st55" d="M1679.5,301.5c0,0-4.4-4.4-6.2-19.5c-1.8-15.2-1.4-37.5-1.4-37.5l-3.6-8.7c0,0-0.7-5.8-2.6-8
				s-5.5-5.8-7.2-7.6c-1.7-1.8-3.6-4.2-4.7-4.6c0.6-0.9,3.1-6.3,12.8-6.4c9.7-0.1,12.7,5.3,13.7,7.3c1,2,5.6,10.5,7.3,26.8
				c1.6,16.2,1.7,17.4,1.4,23.1c-0.2,3.1-1.2,10.3-3,18C1684.5,291,1682.7,298.3,1679.5,301.5L1679.5,301.5z"/>
			<path class="st52" d="M1665.7,314.5c1.5,0.1,2.9-0.2,4.2-0.9c1.4-0.1,6.5,0.6,10.4-4.4c0.3,1.1,0.9,4.2-0.8,6.9
				c0.9-1,2.3-1.3,2.5-1.6c0.1,1.4,1.4,5.7-4.2,16.2c1.5-1.7,3.3-1.6,4.9-1.8c0.1,2,1.1,8.6-1.7,12.2c-1.9,2.4-4.9,1.7-4.9,1.7
				c0-0.5,0-1.1,0-1.6c-0.1-1-0.5-2-0.2-2.7c-1.5-0.7-2.8-1.6-3.9-2.7c-3.3-3.1-7.6-8.4-7.9-12.4c-0.4-4.4,3.6-5.3,3.6-5.3
				c-0.3-0.3-0.6-0.6-0.8-1C1666.7,316.3,1666.5,315.3,1665.7,314.5L1665.7,314.5L1665.7,314.5z"/>
			<path class="st56" d="M1636.5,266.8c0,0-0.2-0.3-1.2,0.9c0.2-1.2,0.4-2.4,0.5-3.5c0.5-1,1.1-2,1.9-2.8c-0.6,1.1-0.9,2.2-0.9,2.2
				s1.4-2.6,3.4-4.2c1.4-1.1,3.2-1.7,3.9-2.7c0.8-1.1,0.6-1.3,0.8-1.5c0,0,1.9-1.2,4.7-4.8c0.4-0.5,0.9-0.9,1.3-1.4
				c0.6-0.3,2.2-0.9,3.9-1.9c1.9-1,3.9-2.4,5.2-3c2.5-1.1,5.2-1,6.5-2.8c0.9-0.3,2-3.1,1.8-5.5c1.4,0.6,8.6,5,11.1,14.8
				c1.8,6.9-1.4,17.6-2.7,22.8c-1.3,5.2-1.5,9-3.4,11.3c-2.3,3.1-9.9,7.5-11.8,9.7c-1.6,1.8-6.4,6.3-6.2,9.6
				c0.2,2.4,3.2,3.8,3.8,4.2c0.6,0.5,0.6,1,1.9,0.8c1.2-0.3,1.7-0.8,2.2-0.8c0.6,0.1,0.6,0.2,0.8,0.2c0.2,0,0.4,0,0.6-0.1
				c0,0-0.2,3.5-8.3,4.5c-0.6,0.1-1.1,0.3-1.9,0.4c0.9-0.5,1.5-0.5,2.5-1.9c-1.1-0.2-4.4-0.4-5.2-0.6c0.3-0.5,1.1-1.7,1.9-2.2
				c0.6-0.6-0.1-0.8-0.6-0.5c-1,0.7-1.9,1.4-2.8,2.2c-0.9,0.8-1.8,2-3.3,3c-0.5-1.5-0.4-4.4,1.4-6.5c-0.5,0.1-1.3,1.4-2.2,1.1
				c-0.2-1.4-0.1-2.8,0.3-4.1c0.5-1.7,2.9-4.7,2.9-4.7l11.9-21.3l2.5-16.1L1636.5,266.8L1636.5,266.8L1636.5,266.8z"/>
			<path class="st57" d="M1635.9,267.7c0,0-0.6,0.5,0.6,1.3c-0.2,0.3-0.6,1.2-1.2,1.9c-0.6,0.8-1.3,1.2-1.6,1.9
				c-0.6,1.3-1,2.2-1,2.8c0,0.6-0.2,4.2-1.8,6.6c-0.6,0.8-1.2,2.2-1.7,3.2c-0.9,1.7-1.8,3-2,3.8c-0.4,1.3-0.6,5-0.6,5s0.8-1,1.1-1.4
				c-0.5,0.9-0.9,2-1.7,2.7c0.5-0.4,1.8-1.3,4-3.3c3.1-2.6,8-7,13.9-10.5c-1.8,0.6-3.3,0.6-4.5,0.8c0.9-0.9,9.5-11,13.9-11.9
				c0.3-0.3,0.4-0.8,0.4-1.2l-3.8-0.4l-7.8,1.7l-1.1-6L1635.9,267.7L1635.9,267.7z"/>
			<path class="st58" d="M1648.2,301.8c0,0-1,1-2,3.6c-0.7-0.8-1.4-1.6-1.9-2.5c-1.4-2.4-3.6-5.3-8.6-3.6c-0.1-1.6-0.2-2.4,0-3.6
				c0.8-0.2,3.4-2.2,5.9-5.2c1.8-2,3.4-4.4,4.6-7.4c0.7-0.6,2-1.5,3.7-2.6c2.4-1.7,5.3-3.9,5.8-6.5c-1.1,0.5-3.6,1.6-7.2,1.4
				c1.4-0.6,3.6-1.3,3.3-4.1c0.6-0.4,1-0.6,1-0.6c-0.4-0.1-0.9-0.2-1.3-0.2c-0.1-0.3-0.2-0.6-0.8-0.5c-0.6,0.2-0.7,0.2-0.8,0.5
				c-0.3,0.1-1.1,0-1.8,0.5s-2.4,2-3.1,2.2c0.3-0.5,0.6-1.1,0.6-1.1s-1.9,0.2-3.2,0.8c-2.4,0.8-5.2,2.4-8.1,3.8
				c0.3-0.5,0.4-0.8,0.6-0.8c0.2-0.1,0.6-0.2,0.6-0.3c0-0.1-0.2-0.8-0.1-1c0.8-1.8,1.9-3.5,3-5.2c1.3-1.8,1.6-4.3,1.6-4.3l5.8-2.9
				l16.3-3.8l10.6,0.6l-1.3,7.3l-6.2,12.8l-5.3,11.6l-6.1,7.1L1648.2,301.8L1648.2,301.8L1648.2,301.8z"/>
			<path class="st59" d="M1674.6,270.1c0,0-6.4,7.9-8.1,9.1c1.1-2.4,8.1-16.9,10.7-20.9c-0.6-0.5-1.3-0.5,0.5-7.5
				c-1.5,3.6-2,5.4-3.3,6.4c-1.2,0.9-1.4,0.6-2.2,0.6c0.2-0.3,0.2-0.6,0.2-0.9c0,0-5.3-0.6-9-0.6c-3.6,0-10.9,2-14.9,3.6
				c-3.2,1.3-5,1.3-6.1,2.2c-1.1,0.9-1.8,2-2.3,2.2c-0.5,0.3-2.6,0.9-3.1,1.7c-0.5,0.8-1.2,1.6-1.2,1.8s-0.2,0.5,0.4,0.3
				c0.2-0.1,1.6-0.8,3.2-1.8c2.2-1.2,4.8-2.6,6.7-3.5c5.4-2.2,7.1-1.8,9.5-2.2c2.5-0.5,6.2-1.5,8.6-1.5c2.4-0.1,7,0,8.1,0.2
				c-0.5,0.4-0.8,0.8-0.6,2.4c0,0.5-0.4,0.9-0.7,2c-1.1,3.1-3.3,8.3-4.5,10.9c-1.7,3.6-3.6,6.6-4.5,8.4c-0.9,1.9-3,6.8-5,9.4
				c-2,2.6-3.1,4.2-3.7,4.8s-5.2,3.9-4.9,5.2c0.8-0.3,6.1-2.3,9.9-6.6c3.8-4.3,4.6-6.9,7.6-9.3c3-2.4,5.3-6.3,6.7-9.6
				C1673.4,273.8,1673.1,272.8,1674.6,270.1L1674.6,270.1L1674.6,270.1z"/>
			<path class="st60" d="M1537.5,329c0,0-0.8,3.5-2.7,5.2c-1.9,1.7-5.1,3.1-5.5,5.9c-0.5,2.8,3.3,4.2,3.3,4.2s-2,3.4-2,5.9
				c0,2.6-0.1,3.1,0.2,5.6c-0.3,0.2-0.6,0.4-0.7,0.8c0,0,0.2,2.4,2,3.9s3.4,2.4,4.4,2c0.1,0.3,0.3,0.6,0.4,1c0,0,1.4-3.6,2.3-6.7
				c0.9-3.2,1.8-2.7,2.2-7c0.4-4.3,4.5-11.6,4.5-11.6l2.8-6.3l-4.6-3.6L1537.5,329L1537.5,329z"/>
			<path class="st61" d="M1546,335.2c-0.9,1-1.8,2-2.6,3.1c-1.2,1.7-2.2,3.2-3.9,3.8c-1.8,0.6-2.9,0.6-2.8,2.4s1.8,2.5,2.7,3.4
				c1,0.9,1.9,2.5,1.4,4.3c0.6-0.3,1.6-0.6,2.5-2.6c0.9-2,7.6-14.5,7.6-14.5L1546,335.2L1546,335.2z"/>
			<path class="st62" d="M1572.1,306.4c0,0,0.6-1.5,0-2.6c-0.6-1.1-4-1.5-5.7-2.8c-1.8-1.3-3.9-2.3-5.7-1.7c0.3-0.6,1.3-2,0.5-2.4
				c-0.8-0.3-3.9,1.1-4.8,1.8c-0.8,0.6-2.7,1.4-3.1,1.9c-0.4,0.5-1,1.3-1.4,0.9c-0.4-0.3-0.6-0.9-1.2-0.6c-0.6,0.4-3.7,2.9-4.3,4.4
				c-0.6,1.5-1.9,4.8-5.7,8.5s-5.5,6.2-4.4,7.6c1.1,1.4,1.7,0.4,1.9,1.6c0.1,1.2,0.1,2.4-0.2,3.6c-0.5,2-1.2,3.8-0.2,4.2
				c2.6,0.8,5.2-0.8,5.7-0.3c1.1,1-0.6,4.7,2,5.4c2.7,0.8,5.4-0.6,5.4-0.6l9.9-5.3l9.5-5l4.9-9.7l-2.6-8.1L1572.1,306.4
				L1572.1,306.4z"/>
			<path class="st63" d="M1562.8,329.5c0,0-1.7-2.5,0.4-4.8c2-2.2,5-3.2,6.1-4.6c-0.2-0.3-0.5-0.5-0.8-0.6c0.8-1.4,1.9-2.4,3.3-3.1
				c-0.6-0.6-1.3-1-2.2-1c-1.9,0-3,1.1-4.7,1.1c-1.7,0-1.9-0.8-1.9-0.8s2.8-0.3,2.5-1.5c-0.3-1.3-0.7-1.3-0.7-1.3s5.4-2.3,6.4-3.5
				c0.9-1.2,0.8-2.6,1-3.2c0.6,0,4.4-2,5.9-1.1c1.5,0.8,0.5,3.1,0.5,3.1s4.6-3.5,6.9-6.8c2,0.2,3-1.4,4.5-1.4c1.9,0,4.8,2.5,5.3,8
				c0.4,3.1,0.9,4.9,0.4,10.4c-0.3,3.1-0.2,9.8,0.7,13c0.6,2.6,2.2,2.4,2.2,2.4c-0.2,0.8-0.7,1.5-1.3,2c-1,0.9-1.1,3.5-1,4.4
				c0.2,0.7,0.3,1.4,0.6,2c0,0-1.2,1.4-1.5,2.4c-0.3,0.9-1.5,1.6-2.4,1.6s-0.5-0.1-1.7,0c-1.2,0.1-1.6,0.3-2.3,0s-1.3-0.6-1-3
				c0.3-2.4-9.4-8.1-9.4-8.1L1562.8,329.5L1562.8,329.5L1562.8,329.5z"/>
			<path class="st64" d="M1544.7,353.5c0,0,3.4,4.6,17.6,4.6c6.7,0,9.1-0.6,10.5-1c1.5-0.4,7.2-2.6,12.9-9.4c5.1-6.1,4-8.6,4-8.6
				l-3-0.5l-9.7,1.3l-28.8,12.3L1544.7,353.5L1544.7,353.5z"/>
			<path class="st65" d="M1555.3,354.6c0,0-12.3,2.7-12.3-5c0-7.6,7.6-15.5,9.5-17c2-1.4,6.7-3,6.7-3h11.3l2.2,5.7l-0.9,12.4
				L1555.3,354.6L1555.3,354.6z"/>
			<path class="st66" d="M1566.6,331.9c0,0-2.3-2.2-7.7,0.8c-5.3,2.9-9.7,9-9.9,14.5c-0.3,4.9,4,8.5,10.7,8.7c5,0.2,8-0.4,9.5-0.8
				c-0.4-0.5-2.3-2.9-2.3-2.9L1566.6,331.9L1566.6,331.9L1566.6,331.9z"/>
			<path class="st67" d="M1564.3,333.1c0,0-0.6-0.5-2.2,0.5c-1.4,0.8-3.4,2.7-5,4.1c-1,0.8-1.7,1.2-2.2,1.9
				c-2.3,2.8-4.3,7.4-3.2,9.7s4.9,4.9,14.4,3.1L1564.3,333.1L1564.3,333.1L1564.3,333.1z"/>
			<path class="st65" d="M1561.2,337.8c0,0-1.5,2.4-1.5,6.1c0,3.8,2.2,9.9,10.1,10.4c6.1,0.4,10.2-8.8,14.6-12.4
				c3.4-2.7,5.4-2.8,5.4-2.8s-3.4-3.8-12.6-8.6c-9.1-4.9-19.3-5.5-24.8,2c2.6-0.2,11.1-2.4,11.1-2.4l4.1,1.3L1561.2,337.8
				L1561.2,337.8L1561.2,337.8z"/>
			<path class="st68" d="M1573.1,342.8c-0.3-0.6-0.5-1.3,0.6-1.5s1.6-0.1,2,0.8s0.7,1.5,0.2,1.9
				C1575.3,344.2,1573.8,343.9,1573.1,342.8L1573.1,342.8z M1571.3,337.5c0,0-0.4,0.3-0.2-0.3c0.1-0.6,0.6-1.8,1.8-1.5
				c1.2,0.3,0.9,1.6,0.7,2s-1.2,1-2,0.8c-0.3-0.1-0.5-0.4-0.5-0.8C1571.2,337.6,1571.2,337.5,1571.3,337.5L1571.3,337.5z"/>
			<path class="st69" d="M1468.8,339.9c0,0,3,2.3,6.5,2.2c3.4-0.1,7.9-3.6,9.9-5.9c1.2-1.3,2.2-2.7,3.4-3.8c0.9-0.9,1.6-1.4,2-2
				c0.6-0.8,1.3-2.2,1.7-2.6c-0.8,0.6-2,1.8-3.3,2.5c-1.2,0.8-3.8,2.2-4.9,2.5c-1,0.4-11.6,6-11.6,6L1468.8,339.9L1468.8,339.9z"/>
			<path class="st70" d="M1473.4,311.9c0,0,1.7-1.1,4.9-1.9c3.1-0.8,9.4-1.3,9.4-1.3l5.1,2.3l2,7.8l-3.7,8.1l-4.8,3l-5.4-8.7
				L1473.4,311.9L1473.4,311.9L1473.4,311.9z"/>
			<path class="st71" d="M1466.6,318.8l-1.8,1.3c0,0,0.5-0.8,0.8-3.4s2.3-8.7,5.2-12.3c2.9-3.6,2.8-3.4,2.8-3.4
				c-0.5-0.1-1.1,0-1.5,0.4c0.4-0.8,2.8-3.8,5.2-5.3c2.4-1.5,3.4-2,5.9-0.8s3.2,1.9,5,1.8c1.9-0.1,3.4-2,3.4-2s0.4,1.2-1,4
				s-6.9,8.5-6.9,8.5l-11.5,7.9L1466.6,318.8L1466.6,318.8L1466.6,318.8z"/>
			<path class="st72" d="M1475.1,310.9c0,0,8.3,1.1,10.9-1.2c0.1,0.3,0.4,0.3,0.4,0.5c0,0.1-0.1,0.3-0.2,0.4c0.3,0,0.6-0.1,0.8-0.1
				c0.3,0.1,0.7,0.2,1,0.2c0.3,0,0.6,0,0.8-0.1c-0.1,0.4-0.3,0.7-0.6,1c0.4,0,0.7,0.1,0.7,0.4s0.1,1.2-0.4,1.4
				c-0.4,0.1-0.8,0.1-1.1-0.1c0,0.7,0.2,1.4,0.6,2c0.7,1.4,2.3,3,4.5,2.5c0,0,1.1,2.7-3.6,8.8c-0.6,0.8-1.3,2-2.2,2.9
				c-0.3,0.7-0.6,1.5-0.7,2.2c0,0,8.1-3.1,10.4-10.2c2.3-7.1,2.8-14.1,2.3-20.7c-0.1-1.9-0.4-3.2-0.8-4.1c-1.1-2.4-4.3-2-5.6-0.6
				c-1.9,1.9-5,6.5-9.3,9.7C1478.7,308.9,1478.5,309.5,1475.1,310.9L1475.1,310.9L1475.1,310.9z"/>
			<path class="st64" d="M1465.1,321.1c0,0-1.6,0.9-2.4,4.5c-0.8,3.6,0.7,8.1,1.7,9.5s3,5.2,7.3,5.4c1.1,0,2.1-0.2,3.1-0.6
				c1.5-0.7,2.9-1.6,4.2-2.6c1.9-1.4,3.4-2.6,3.2-2.7c-0.5-0.2-11.4-9.3-11.4-9.3l-4.1-4.6L1465.1,321.1L1465.1,321.1z"/>
			<path class="st73" d="M1475.5,336.2c0,0,2.2-0.2,3.6-1c1.3-0.8-7.8-9.9-7.8-9.9l0.6,9.8L1475.5,336.2z"/>
			<path class="st74" d="M1465.9,320.5c0,0-1.1,2.2-1.1,2.7c-0.2,1.9,0.4,7.7,0.8,9.6c0.5,2,2.9,5,6.1,5c2,0,4.7-1.2,4.7-1.5
				c0-0.4-2.8-0.8-3.6-2.2c-0.5-0.8-0.6-2.6-0.7-4.5c-0.1-1.2-0.1-2.5,0.4-3c1-1.1,1.2-4.4,1.2-4.4l3.6-6.8h-4.8l-5.7,3.6
				L1465.9,320.5z"/>
			<path class="st65" d="M1464.5,322.5c0,0,3.7-5,7.1-6.1c3.4-1.1,4.9-0.5,4.9-0.5l-2,5l-2.8,3.1l0.2,1.6c0,0-0.5,4.2,2.3,7.1
				c2.8,2.9,4.9,2.8,6.1,2.8c1.2,0,4.7-1,6.5-5.2c1.6-3.9,2.9-9-0.3-14.1c-3.1-5-8.6-5.2-9.7-5.2S1467.5,311.5,1464.5,322.5
				L1464.5,322.5L1464.5,322.5z"/>
			<path class="st75" d="M1560.6,339.4c-1.4-0.6-0.1-4.6,1.3-5.8s3.2-2.6,6.3-2.8c1.1-0.1,2.2,0.6,2,1.4c-0.3,1.4-2.2,3.4-4,4.8
				C1563.8,338.9,1562.2,340.1,1560.6,339.4z"/>
			<path class="st76" d="M1484.9,317.9c1-0.1,2.3,0.8,2.6,1.9c0.3,1.2-0.6,3.6-2.6,3.6c-1.6,0-2.4-2-2.4-2.5c0-0.5,0.1-0.9,0.4-1.3
				C1482.9,319.4,1483.1,318.1,1484.9,317.9z"/>
			<path class="st77" d="M1470.1,318.8c0,0-2.6,1.2-3.8,3.8c-0.9,1.9-1.1,4-0.7,6c0.2,0.9,1.1,3.3,1.8,4.1c0.6,0.8,1.5,1.4,2.2,1.3
				c0.6-0.1,2-1.8,2-2.8s0.1-5.3,1.3-7.7C1473.9,321.1,1470.1,318.8,1470.1,318.8L1470.1,318.8L1470.1,318.8z"/>
			<path class="st78" d="M1470.5,318.6c-0.5,0.3-1.2,0.6-1,1.1c0.2,0.5,1.8,0.8,2.3,1.9c0.6,1.1,0.6,2.4,0.5,2.9
				c0.5-0.2,0.9-0.6,1.3-0.9c0.8-0.9,1.9-2.2,2.7-2.2c0.6,0,1.1,0.3,1.7,0.3c0.8,0,1.7-0.3,1.8-1.1c0.2-1.1-1.6-2.2-2.6-2
				c0.2-0.8,0.5-1.9-0.4-2.6c-0.8-0.8-3.4,0.6-4,1C1472.2,317.2,1470.5,318.6,1470.5,318.6L1470.5,318.6L1470.5,318.6z"/>
			<path class="st79" d="M1530.7,398.3l5.6-1.7l1.6,1.1c0,0,1.1,2.4,2.9,2.7c-0.6,1.2-2,2.3-2,3.1c0.1,0.9,0.8,1.5,0.8,1.5
				s-5,8.3,4.9,16.8c-2.3,0.9-5.3,2.3-6.9,3c1.1,0.3,3.6,0.8,4.6,1.7c1,0.9,1,1.2,2,1.8c0.9,0.6,1.5,1.3,1.3,1.7
				c-0.6-0.4-2.8-1.5-3.2-0.5s-9.4,0.6-9.4,0.6l-15.1,2.9c0,0,0.6-1.5-1-2.9c-1.9-1.7-4.1,0.1-6.5-1.8c-3.2-2.4-3.3-5.2-4.3-6.3
				c1-0.6,3.1-1.6,8.1-2.3c-0.2-0.4-0.8-1.5-0.5-2.5c0.5-1.3,2.3-2.2,1.8-3.8c0.8-0.2,1.2-0.2,3.3-2.8c2-2.6,3.2-3.2,4.7-3.4
				c1.5-0.2,2.4,0,5.2-2.6c2-1.9,1.3-3.4,1.3-3.4S1531.1,400.9,1530.7,398.3L1530.7,398.3L1530.7,398.3z"/>
			<path class="st80" d="M1514.1,399.1c0.1-0.4,0.4-0.6,2.4-0.4s15-1.2,18.5-1.4c3.6-0.3,16.1-0.1,22.2,1.2
				c6.1,1.3,12.3,2.8,15.3,3.6c3,0.8,3.9,1.1,3.8,1.5c-0.1,0.4-0.7,0.8-1.1,0.6c-0.4-0.1-10.3-3.1-13.4-3.8
				c-3.1-0.6-13.7-2.4-19.5-2.3c-5.4,0.1-7.6-0.1-12.2,0.5c-4.6,0.6-12.2,1.3-14.4,1C1513.5,399.5,1514,399.5,1514.1,399.1
				L1514.1,399.1L1514.1,399.1z"/>
			<path class="st81" d="M1544.6,428.9c0,0,7.8,4.2,10.6,9.4c2,3.8-1.2,5.7-1.2,5.7s4.4,0,3.8,2.4c-0.3,1.5-7.6,5.6-12.5,7.8
				c-5,2.2-4.8,2-7.2,2.4c-2.3,0.4-8.8-0.8-10.1,1.1c-1.3,1.9-0.7,3.8-0.4,4.1c0.4,0.3,3.4,0.6,3.4,0.6s-0.6,1.8-7,2
				c-6.4,0.2-8,0.6-8.3,1.3c-0.4,0.6,1.2,0.3,4.1,0.8c2.9,0.5,7,0.8,7,0.8s-1.3,1.1-4.8,2c-3.9,1-10.1,2-12,3.1
				c0.9,0.6,2.3,1.6,3,1.7c-1.6,0.4-3.8,1.2-4.2,1.5c0.6,0.4,1.3,0.8,1.3,0.8s-3.2,3.8-5,4.8c-1.9,1-12.5,5.9-16.2,5
				c-9.2-2.4-10.3-12.5-12.5-13.2c-3.4-1.1-5,1.1-8-0.5c1.3-0.9,2-1.5,3.4-2.2c-1.5-0.8-9.4-5.7-9.4-5.7c-0.8-1.8-1.7-3.5-2.7-5.2
				c-1.5-2.6-3.7-6.1-5.4-9.2c-3.6-6.8-3.8-9.9-7.1-13.7c0.6-0.8,2.5-0.6,2.5-0.6l27.6,9.1l48.9,1.4l12.7-18.2L1544.6,428.9
				L1544.6,428.9z"/>
			<path class="st82" d="M1472.1,456.6c0.3,0.3,0.6,0.6,1,0.8c0.9,0.6,2.3,1.4,3.3,2.5c0.4-0.6,1.3-1.6,3,0c1.7,1.6,3.7,0.5,5,0.8
				c1.3,0.5,1.4,0.6,1.4,0.6s0.7-0.6,2.4-1.3c1-0.4,2.2-0.6,3.6-1c1.2-0.3,2.5-0.6,3.4-0.6c0.8,0.6,3.8,3.8,15.8-0.9
				c11.3-4.4,13.9-4.9,15.8-4.2c0.2-0.5,0.4-1.3,3.3-1.2c0-1.2-2.4-5.3-2.4-5.3l-13.4-4.6h-7.3l-21.9,4l-12.1,6.9L1472.1,456.6
				L1472.1,456.6z"/>
			<path class="st83" d="M1464.8,448.9c0,0,0.3,2,3.3,4.2c3,2.2,3.9,3.5,3.9,3.5s0.6-0.8,1-1.5c0.5-0.8,0.8-1.8,1.6-2
				c1.5-0.6,5,0.6,5.7,0.4c0.6-0.2,0.5-1.5,1.1-1.5c1.6-0.1,2.6,1,3.2,1s2-0.1,2.2-0.4s0.3-3.5,2.4-5c2.3-1.7,5.2-0.9,6-0.6
				c0,0.6,0.1,2,1.6,2c1.5,0.1,1.7-0.2,3,0.3c1.3,0.5,2.9-0.1,3.6,2.2c0.6-0.2,2.2-0.4,1.8-2.5c0.7-0.6,1.4-0.9,3-3.2
				c0.4-0.6,1-1.2,1.5-2c1.3,0,2.9-0.3,5,1.6c-0.6,0.5-1,0.8-1.2,1.2c0.6,0.5,1.1,1.1,1.5,1.8c0.6,0.8,0.9,1.7,1.7,1.9
				c1.6,0.5,4.2-0.2,7.1,0c2.8,0.2,5.1,1.2,6.2,1.9c0.4-0.2,0.4-0.3,1.3-0.1c0.9,0.2,1.7,0.3,0.6-0.9c0.6,0.3,1.2,0.8,1.8,0.3
				s1-1.4,2.6-1.6s2.2,0.1,2.8-1.6c0.8-2-2-2-2-2s1.3-1.2,2.8-2.8c1.8-1.7,3.8-3.8,4.3-6.5c0.8-4.9-3.9-5.5-3.9-5.5l-23.1,7.1
				l-28.3-1.4L1464.8,448.9L1464.8,448.9L1464.8,448.9z"/>
			<path class="st84" d="M1444,382c0,0-0.7,0.9-1.2,3.2c-0.5,2.2-0.3,2-0.6,3.6s-5,17.4-3.3,22.8c1.7,5.3,4.8,7.3,6.7,11.6
				c0.4,0.9,0.7,1.5,0.9,2.4c0.6,2.8,0.1,5,0.8,7.8c0.3,0.9,0.9,2,2,3.2c2.2,2.4,5.9,4.6,7.5,6.2c2.2,2.4,5.4,7.1,9.5,7.6
				c2.2,0.3,5.2-0.6,7.8-2.2c2.2-1.4,3.6-3.4,6-4.5c1.7-0.8,3.4-1.1,5-1.5c3.3-0.6,6.3-0.8,8.1-0.4c2.7,0.6,9.2,2.5,12.7,2.5
				c2.8,0,5.6-0.4,8.3-1.1c5.4-1.6,12-4.3,16.3-5.5c2.5-0.8,4.6-0.9,6.7-1.4c3.6-0.8,6.5-2,8.3-4.1c-1.1-1.3-2.5-3.4-10.1-3.3
				c-8.6,0.2-18.5,5-23.4,5.7c-4.9,0.8-7,1.4-12.5-0.6c-5.3-2-5.5-3.3-5.5-3.3s-5.6-3.9-8-14s0-17.3,6.1-24.3
				c1.6-1.8,1.2-3.4,1.2-3.4s4-5.4,2.9-10.5c-1.2-5-9-4-9-4L1444,382L1444,382L1444,382z"/>
			<path class="st85" d="M1450.5,398.9c-0.3,0.6-0.5,1.3-0.5,2c0.1,1,0.4,2.4,3.4,5.3c2.6,2.6,2,5.5,2,5.5s1.3,0.3,4.9-1.4
				c2.8-1.3,3.7,1,3.7,1c0.8-0.4,1.7-0.7,2.6-0.8c0.8-0.1,1.6-0.3,2.3-0.8c0,0,3.3,3.4,6.2,5c2.6,1.4,4.1,2.4,5.4,1.4
				c1.2-0.8,1.2-2.5,1.1-3.3c-0.3-0.7-0.7-1.4-1.1-2c-0.8-1.2-2.2-2.6-2.2-3.8c-0.2-2.6,2-5.7,1.5-6.5c-0.5-0.8-2.2-0.9-6.4,0.6
				C1469.2,402.7,1450.4,398.9,1450.5,398.9L1450.5,398.9L1450.5,398.9z"/>
			<path class="st86" d="M1460.4,415.8c0,0-2.2-2-1.4-12c0.9,0,1.8,0.1,2.7,0.3C1461.7,404.1,1462.9,411.8,1460.4,415.8z"/>
			<path class="st65" d="M1445,374.4c0.3-0.2,0.6-0.5,0.8-0.8c-0.7,1.4-4.2,7-1.4,15.9c2.8,8.8,9.8,15.4,18.5,15.7
				c8.7,0.3,13.2-3.9,18.4-10.3c2-2.5,4.4-5.7,6.5-7.9c3.1-3.4,5.5-4.3,5.5-7.6c0-6.7-6.8-9.7-16.9-12.7s-19.1-2.6-23.8-0.6
				C1448.2,368.4,1446.2,370.7,1445,374.4L1445,374.4L1445,374.4z"/>
			<path class="st87" d="M1477.2,418.8l0.7-0.4c0,0,0.2-3,1.4-2.9c1.2,0.2,1.8,1.8,1.7,2.4c-0.1,0.6-0.4,1.5-1.6,1.4
				C1477.9,419.3,1477.2,418.8,1477.2,418.8L1477.2,418.8z"/>
			<path class="st88" d="M1473.9,406.1c0,0,0.7-0.3,1.7,0.6c0.7,0,4-0.4,5,0.3c1,0.6,1.3,1.2,1.3,1.2s-3.8,0.8-5.9,0
				C1473.9,407.5,1473.9,406.1,1473.9,406.1z"/>
			<path class="st89" d="M1490.7,406.6c0-0.2-2-1.6-4.2-2c-0.4-0.1-0.5,0.2-0.7,0.2c-0.2-0.1-0.3-0.6-0.3-0.6l-1.2,0.6
				c0,0-0.2,0.3,0.5,0.8c0.6,0.5,1.5,0.8,1.8,1.6c0.3,0.8,0.3,1,0.4,1.1c0.1,0.1,1.4,0,2-0.4
				C1489.6,407.5,1490.8,406.9,1490.7,406.6L1490.7,406.6L1490.7,406.6z"/>
			<path class="st90" d="M1471.6,414.3c0,0,0.4-2.6,2.9-2.7c2.6-0.2,3.1,2.4,3.1,2.4l-1.5,1.5C1476.1,415.4,1475,413.8,1471.6,414.3
				L1471.6,414.3z"/>
			<path class="st91" d="M1488.1,403.1c0,0-1.4,1.5-4.5,2c-0.3-0.4-0.8-1.1,0-2.4c0.8-1.2,1.8-1.6,2.7-1.2
				C1487.1,401.6,1487.8,402.2,1488.1,403.1z"/>
			<path class="st89" d="M1493.8,404.9c0.1-0.4-0.2-0.5,0-0.6c0.2-0.2,1.2-0.6,1.4-0.4c0.1,0.1,0,0.4,0,0.8s0,0.8-0.2,1
				c-0.3,0.4-1,0.6-1.4,0.5s-0.5-0.6-0.5-0.8C1493.3,405.3,1493.8,405.1,1493.8,404.9z M1500.2,400.8c0-0.2,0.6-0.6,1-0.6
				c0.6,0,0.6,0.5,0.6,0.6c0.2,0.1,0.2-0.1,0.4,0.3s0.5,0.9,0.3,1.3s-0.9,0.6-1.1,0.6C1501.1,402.8,1500.3,401.1,1500.2,400.8z"/>
			<path class="st84" d="M1487.2,405.8c0,0,0.8,0.2,2,1.1c-0.4,0.3-0.9,0.6-0.9,0.6S1488.2,406.6,1487.2,405.8L1487.2,405.8z"/>
			<path class="st64" d="M1485.4,397.4c-0.2-0.2,0.6-0.6,1-0.6c0.5,0.1,0.6,0.4,1.1,0.5s0.6-0.2,0.7-0.4s0.8-0.1,0.9,0
				c0.1,0.1,0.1,0.2,0.2,0.3c0-0.3,0.2-0.6,0.4-0.8c0.3-0.2,0.7-0.3,1-0.2c0.1,0.3,0.5,1.2,0.4,1.4s-1.2,0.5-1.4,0.3
				c0.2,0.5,1,1.4,1.1,1.6s-0.8,0.6-1.2,0.6C1489.2,400.1,1485.9,398.2,1485.4,397.4L1485.4,397.4z M1490.3,391.2
				c-0.1-0.2-0.2-0.4-0.4-0.5c-0.3-0.1-1.1,0-1.1,0.5s0.7,3,1.6,4.3c0.9,1.3,1.6,2.4,2.2,2.7c0.4,0.2,0.9,0,1.1-0.4
				c0.1-0.2,0.3-1.6,0.2-4.9c-0.1-3.3-0.2-6.5-0.4-6.7s-0.9-0.2-1.2,0.2S1490.4,390.6,1490.3,391.2L1490.3,391.2L1490.3,391.2z"/>
			<path class="st91" d="M1487,410.6c0,0-1.3-0.8-2.6-0.3c-1.2,0.6-1.1,2.8-1.1,2.8c0.6,0.2,1.2,0.1,1.7-0.2
				C1485.7,412.4,1486.8,411.4,1487,410.6L1487,410.6z"/>
			<path class="st89" d="M1489.5,413.6c-0.1-0.8-0.7-0.8-0.7-1.1c0.1-0.4,0.4-0.6,0.8-0.6c0.4,0,0.7,0.5,1.2,0.8
				c0.5,0.3,1.1,0.8,1.2,1.3c0.1,0.6-0.7,2.2-1.7,2.2C1489.4,416,1489.7,414.3,1489.5,413.6L1489.5,413.6z M1496.8,412.5
				c0,0-1.5,0.5-1.4,0s0.5-0.6,0.9-0.6c0.2-0.3,0.6-0.4,0.9-0.5c0.2,0,0.4,0.1,0.6,0.2c0,0,1-0.5,1.3-0.2c0.3,0.3,0.1,0.3,0.3,0.6
				c0.2,0.3,0.4,0.7,0.5,1.1c0,0.3-1.1,0.9-2,0.8C1496.8,413.8,1497,412.7,1496.8,412.5z M1505.6,410.8c0,0,0.5,0.3,0.1,0.6
				c-0.3,0.3-1.6,0.8-2.7,0.8c-1.1,0-2.2,0.2-2.2-0.2s0.9-1.1,1.5-1.3c0.2-0.3,0.6-0.5,0.9-0.5c0.5,0,2.2-0.2,2.7-0.3
				c0.5-0.1,0.8,0.2,0.6,0.6C1506.4,410.8,1505.6,410.8,1505.6,410.8L1505.6,410.8z M1508.2,399.1c0,0-0.6,1.2-1.2,1.2
				c-0.6-0.1-0.6-0.3-0.6-0.5c0-0.3,0.6-0.9,0.6-1.1c-0.2,0-0.6,0-0.6-0.5c0-0.4,0.6-0.8,1.2-0.8c0.4-0.4,1-0.6,1.5-0.6
				c0.6,0,1.2,0.2,1.2,0.6s-0.7,1.2-1,1.4C1509,399.2,1508.6,399.4,1508.2,399.1L1508.2,399.1z M1499.6,421.5c0,0-0.7,0.1-0.7,0.5
				c0,0.2,0.2,0.2,0.5,0.1c0.2,0,0.3,0,0.5-0.1c0.1,0.1,0.1,0.5,0.6,0.5c0.5-0.1,0.9-0.2,1.3-0.5c0.5-0.2,0.8-0.4,0.8-0.8
				c-0.2-0.6-0.6-1-1.1-1c-0.3,0-0.6,0-0.8,0.2c0,0-0.2-0.4-0.8,0c-0.6,0.4-0.6,0.4-0.4,0.6C1499.7,421.4,1499.6,421.6,1499.6,421.5
				L1499.6,421.5z M1495.3,425.5c0-0.2,0.9-0.6,1.2-0.5c0.3,0.1,1,1.5,1,1.7c0,0.2-0.9,0.6-1.3,0.6s-1-0.6-1-0.8
				c0-0.1,0.5-0.2,0.5-0.3C1495.7,426.1,1495.3,425.7,1495.3,425.5L1495.3,425.5z M1492.3,419.9c0.2-0.1,0.2-0.3,0.5-0.5
				c0.2-0.1,0.4-0.1,0.6-0.1c0.1-0.2,0.4-0.4,0.6-0.5c0.5-0.1,0.8,0,0.7,0.2c0,0.6,0.4,0.9,0.4,1.4s-0.3,1-1.2,1.4
				c-0.9,0.3-2.2,0.3-2.4,0.2s-0.4-0.8-0.2-1.2S1492,420.1,1492.3,419.9L1492.3,419.9L1492.3,419.9z"/>
			<path class="st84" d="M1493.5,420.2c0,0-0.6,0.4-0.6,0.6c-0.1,0.2-0.1,0.4-0.1,0.6c0,0.1,0.8-0.1,0.9-0.2
				C1493.8,421.1,1493.5,420.4,1493.5,420.2z"/>
			<path class="st64" d="M1487.9,418.4c0.4,0.1,1,0,1.5,0.2c0.4,0.2,0.6,0.6,0.3,1s-0.7,1.1-1.6,1c-0.9-0.1-1.9-0.6-1.9-0.9
				c0-0.5,0.1-1,0.5-1.3C1487,418.1,1487.2,418.3,1487.9,418.4L1487.9,418.4L1487.9,418.4z"/>
			<path class="st91" d="M1487.4,418.8c0,0-1.2,0.9-1.5,1.4c-0.4,0.5-2.2,2.8-2.8,3.3c0.2-0.3,0.4-0.6,0.6-0.9
				c-0.7,0.5-1.3,1.2-1.6,2c-0.5,1.4,2.5,2.2,4.5,2.7c2,0.6,2.7,0.8,2.7,0.8c-0.7-1.1-1.3-2.2-1.9-3.5c-0.7-1.8-1.1-2-0.6-2.8
				c0.4-0.8,0.9-1.4,0.9-2C1487.6,419.2,1487.4,418.8,1487.4,418.8z"/>
			<path class="st65" d="M1444.2,421.8c0.3,0.1,0.6,0.1,0.8,0c0.6-0.1,6.5-2.3,12.6-1.9c4.6,0.3,9.2,1,13.7,2.3
				c7.8,2,17.4,6.1,23.7,8.4c1.7,0.6,3.3,1.8,4.5,2.2c4.8,1.9,5,1.9,7.8,2.4c3.3,0.5,6.7-0.6,10.2-1.4c4.3-1,11.7-1.4,18.2-2.4
				c2.1-0.3,4.2-0.8,6.2-1.4c0,0-5.1,5.2-17.5,7c-5,0.8-10.1,0.8-15.1,0.2c-3.9-0.4-6.5-1-8.5-1.5c-2.2-0.6-6.8-2.4-12.5-3.8
				c-3.9-1-8.3-1.8-13.4-2.7C1462.5,427,1449,424.4,1444.2,421.8L1444.2,421.8z"/>
			<line class="st92" x1="1437.8" y1="373.7" x2="1406.3" y2="344.2"/>
			<path class="st3" d="M1430.3,398.4c-3,2.5-6.2,5-9.3,7.3l-9.4,7.2c-3.2,2.4-6.3,4.8-9.5,7.1s-6.4,4.6-9.7,6.8
				c3-2.5,6.2-4.9,9.4-7.2c3.2-2.3,6.5-4.6,9.5-6.9l9.4-7.2C1423.9,403.1,1427.1,400.6,1430.3,398.4L1430.3,398.4z M1413.8,424.9
				c0,0,3.4-2.8,7.6-6.8c5.2-4.9,11.6-11.1,13.7-12.3L1413.8,424.9L1413.8,424.9z"/>
			<path class="st3" d="M1413.8,424.9c1.7-1.7,3.4-3.3,5.2-4.9l2.7-2.4c0.8-0.8,1.8-1.6,2.6-2.4c1.7-1.7,3.3-3.5,5-5.2
				c0.8-0.9,1.7-1.7,2.6-2.4c0.5-0.4,1-0.8,1.5-1c0.5-0.3,0.9-0.8,1.6-0.8c-0.4,0.6-0.8,0.8-1.2,1.3c-0.5,0.4-0.8,0.8-1.2,1.2
				c-0.8,0.8-1.8,1.6-2.6,2.4c-1.8,1.5-3.6,3-5.4,4.6c-1.8,1.6-3.4,3.3-5.2,4.9C1417.4,421.8,1415.6,423.4,1413.8,424.9
				L1413.8,424.9z M1436.4,409.7c0,0-12.3,12.1-14.9,14.1L1436.4,409.7z"/>
			<path class="st3" d="M1436.4,409.7c-1.1,1.3-2.3,2.5-3.6,3.6l-3.7,3.6c-1.2,1.2-2.3,2.4-3.6,3.6c-1.3,1.1-2.5,2.3-3.9,3.3
				l3.6-3.6c1.2-1.2,2.5-2.2,3.8-3.5l3.6-3.6C1433.9,412,1435.1,410.8,1436.4,409.7z M1437,416.3c-1.1,3.2-2.5,6.3-4,9.3
				c-3.2,6.4-7.9,14.3-10,18.4L1437,416.3L1437,416.3z"/>
			<path class="st3" d="M1437,416.3c0,1.4-0.4,2.6-0.8,3.8c-0.4,1.2-0.9,2.4-1.5,3.6c-0.6,1.1-1.2,2.4-1.9,3.5s-1.4,2.2-2,3.4
				l-3.8,6.8c-1.3,2.3-2.6,4.5-4,6.7c0.9-2.4,2.2-4.7,3.4-6.9c1.3-2.3,2.5-4.5,3.7-6.8c0.6-1.2,1.1-2.3,1.6-3.6
				c0.6-1.2,1.1-2.4,1.6-3.5c0.6-1.2,1-2.4,1.6-3.5C1435.6,418.5,1436.1,417.4,1437,416.3L1437,416.3z"/>
			<path class="st93" d="M1450.5,447.4c0,0-3.7,5-3.4,11.3C1448.1,455.4,1449.4,450.3,1450.5,447.4z M1454,452.4
				c0,0-1.3,13.5-2.4,20.1C1453.1,464.8,1453.4,465.5,1454,452.4z M1478.8,473.3c0,0-5.6,16.5-5.7,21.1
				C1474.3,489.7,1476.7,480,1478.8,473.3L1478.8,473.3z"/>
			<path class="st94" d="M1491.9,446.4c0,0,9.1,15,15.9,27.8C1506,467.8,1501.7,455.9,1491.9,446.4z"/>
			<path class="st95" d="M1516.3,468.5c5,8.8,9.5,17.9,13.5,27.3C1529.1,489.3,1527,478.3,1516.3,468.5z"/>
			<path class="st96" d="M1588.1,490.6c1.5-0.9,4.5-6.1,7.1-7.4c2.6-1.3,4.6-1.6,6.9-4.2c2.3-2.7,3-4.4,8.1-6.6
				c7.2-3.1,2.2-7.1,2.2-7.1c0.8-0.8,1.6-1.5,2.5-2.2c1.9-1.4,4-3.1,3.8-6.1c-0.3-5-1.2-12.4-5.3-16.6c4-0.8,11.7-1.4,16.5-2.6
				c5.5-1.4,8.1-3.4,8.1-3.4s-3.2-5.4,2-10.9c5.1-5.5,9.4-8.7,12.5-14.8c-3.6-0.5-9-2.3-22.8,2.9c0.7,0.4,1.5,0.8,2.2,1.2
				c0,0-8.5,2.4-11.6,5c-5.4,4.6-6.1,8.3-12,11.1c-5.9,2.8-11.8,2-16.7,4.3c-4.9,2.3-5.6,4.2-7.4,5c0.4,0.5-0.1,1.2,0.6,1.9
				c-0.5,0.6-3.1,5-5.8,5c0.3,1,2.5,1.8,2.5,1.8s-1.7,1.2-5.9,1.5c2.2,2.3,4.2,4.7,9.8,8.3c-0.5,0.9-2.3,2.4-1.6,4.1
				c0.8,1.8,3,4.2,11.6,6.2c-4.4,0.2-9.5,1.2-16.5,0.3c-6.9-0.8-8.1-1.3-12.3-0.3c0.5,0.5,1.7,0.5,2.7,1.7
				c-1.1,0.1-8.3-0.8-10.7,2.4c-2.5,3.3-3.6,8.7-3.4,12.4c-1.3,0.6-2.6,1.8-2,4.1c0.6,2.4,4,3.1,6.2,4.6c2.2,1.6,2.3,2.2,4.4,1.8
				c2.2-0.5,5.3-2.6,7.2-2.6s3.2,1.4,3.2,1.4s5-2.4,5.5-2c0.5,0.5,0.1,3.4,0.6,3.8C1581,495,1586.6,491.6,1588.1,490.6L1588.1,490.6
				z"/>
			<path class="st97" d="M1698.2,338.9c-23.7-61.2-82.2-72.5-82.2-72.5h-166.9l0.6,62.3h33.2v139.2h-33.9v62.2h162.3
				c39.1,0,70.5-39.4,70.5-39.4C1732.1,419.4,1698.2,338.9,1698.2,338.9L1698.2,338.9z M1612.3,448.8c0,0-12.7,18.4-26.6,18.4H1558
				l-0.7-138.4h35.6c0,0,16.5,3.5,28,36.1C1620.9,364.9,1636.1,411.7,1612.3,448.8z"/>
		</g>
	</g>
</g>
<ellipse class="st98" cx="1569.5" cy="396.5" rx="233.9" ry="234.4"/>
</svg>
