<?xml version="1.0" encoding="utf-8"?>
<!-- Generator: Adobe Illustrator 19.0.0, SVG Export Plug-In . SVG Version: 6.00 Build 0)  -->
<svg version="1.1" id="Capa_1" xmlns="http://www.w3.org/2000/svg" xmlns:xlink="http://www.w3.org/1999/xlink" x="0px" y="0px"
	 viewBox="-49 141 512 512" style="enable-background:new -49 141 512 512;" xml:space="preserve">
<style type="text/css">
	.st0{fill:#B2B2B2;}
	.st1{fill:#FFFFFF;}
</style>
<path class="st0" d="M463,397c0,141.4-114.6,256-256,256c-60.1,0-115.4-20.7-159-55.4c-12-9.5-23.1-20.1-33.2-31.5
	C-24.9,521-49,461.8-49,397s24.1-124,63.8-169.1c10.1-11.5,21.2-22,33.2-31.5c43.7-34.7,98.9-55.4,159-55.4
	C348.4,141,463,255.6,463,397z"/>
<path class="st1" d="M258.1,196.4H14.8V295h52.6V499H14.8v67.1c10.1,11.5,21.2,22,33.2,31.5h210.2c41.1,0,157.9-26.3,157.9-200.6
	S299.2,196.4,258.1,196.4z M228.5,499h-44.4V295h44.4c11.5,0,60.8,23,60.8,102S240,499,228.5,499z"/>
</svg>
