<?xml version="1.0" encoding="utf-8"?>
<!-- Generator: Adobe Illustrator 19.0.0, SVG Export Plug-In . SVG Version: 6.00 Build 0)  -->
<svg version="1.1" id="Layer_1" xmlns="http://www.w3.org/2000/svg" xmlns:xlink="http://www.w3.org/1999/xlink" x="0px" y="0px"
	 viewBox="-516.8 147.3 500 500" style="enable-background:new -516.8 147.3 500 500;" xml:space="preserve">
<style type="text/css">
	.st0{fill:#B2B2B2;}
</style>
<g>
	<path class="st0" d="M-138.3,300.1c-9.1-5.9-20.9-5.9-31.3,0l-73.1,49l-49.6,31.2l-71.8,49c-9.1,5.9-20.9,5.9-31.3,0l-56.1-38.6
		c-9.1-5.9-15.7-17.8-15.7-31.2v-74.2c0-11.9,5.2-23.7,15.7-31.2l56.1-37.1c9.1-5.9,20.9-5.9,31.3,0l56.1,38.6
		c9.1,5.9,15.7,17.8,15.7,31.2v49l49.6-32.6v-50.4c0-11.9-5.2-23.7-15.7-31.2l-104.4-69.7c-9.1-5.9-20.9-5.9-31.3,0l-107,71.2
		c-10.4,5.9-15.7,17.8-15.7,29.7v139.5c0,11.9,5.2,23.7,15.7,31.2l105.7,69.7c9.1,5.9,20.9,5.9,31.3,0l71.8-47.5l49.6-32.6
		l71.8-47.5c9.1-5.9,20.9-5.9,31.3,0l56.1,37.1c9.1,5.9,15.7,17.8,15.7,31.2v74.2c0,11.9-5.2,23.7-15.7,31.2l-54.8,37.1
		c-9.1,5.9-20.9,5.9-31.3,0l-56.1-37.1c-9.1-5.9-15.7-17.8-15.7-31.2v-47.5l-49.6,32.6v49c0,11.9,5.2,23.7,15.7,31.2l105.7,69.7
		c9.1,5.9,20.9,5.9,31.3,0l105.7-69.7c9.1-5.9,15.7-17.8,15.7-31.2V401c0-11.9-5.2-23.7-15.7-31.2L-138.3,300.1z"/>
</g>
</svg>
