<?xml version="1.0" encoding="utf-8"?>
<!-- Generator: Adobe Illustrator 19.0.0, SVG Export Plug-In . SVG Version: 6.00 Build 0)  -->
<svg version="1.1" id="Layer_1" xmlns="http://www.w3.org/2000/svg" xmlns:xlink="http://www.w3.org/1999/xlink" x="0px" y="0px"
	 viewBox="-135 249.7 339.4 295.3" style="enable-background:new -135 249.7 339.4 295.3;" xml:space="preserve">
<style type="text/css">
	.st0{fill:#B2B2B2;}
	.st1{fill:#FFFFFF;}
</style>
<title>tether-usdt-logo</title>
<path class="st0" d="M-72.8,251.2l-61.9,130c-0.5,1-0.3,2.2,0.5,2.9L32.9,544.3c1,0.9,2.5,0.9,3.5,0l167.2-160.2
	c0.8-0.8,1-1.9,0.5-2.9l-61.9-130c-0.4-0.9-1.3-1.5-2.3-1.5H-70.6C-71.5,249.7-72.4,250.3-72.8,251.2
	C-72.9,251.2-72.9,251.2-72.8,251.2z"/>
<path class="st1" d="M56.2,394.5L56.2,394.5C55,394.6,48.8,395,35,395c-11,0-18.8-0.3-21.6-0.5l0,0c-42.5-1.9-74.2-9.3-74.2-18.1
	s31.7-16.3,74.2-18.2v28.9c2.8,0.2,10.7,0.7,21.7,0.7c13.2,0,19.8-0.5,21-0.7v-28.9c42.4,1.9,74.1,9.3,74.1,18.1
	C130.2,385.2,98.6,392.6,56.2,394.5L56.2,394.5L56.2,394.5z M56.2,355.3v-25.9h59.2V290H-45.8v39.4h59.2v25.9
	c-48.1,2.2-84.3,11.7-84.3,23.2c0,11.4,36.2,20.9,84.3,23.2v82.9h42.8v-82.9c48-2.2,84.1-11.7,84.1-23.1S104.2,357.5,56.2,355.3
	L56.2,355.3L56.2,355.3z M56.2,355.3L56.2,355.3z"/>
</svg>
